<svg width="65" height="64" viewBox="0 0 65 64" fill="none" xmlns="http://www.w3.org/2000/svg">
<g clip-path="url(#clip0_23_1215)">
<path d="M63.7506 29.0371C61.5669 26.3351 57.6607 21.9298 52.6468 18.0518V14.157C53.9524 13.7559 54.9042 12.539 54.9042 11.1037C54.9042 9.34276 53.4715 7.90996 51.7105 7.90996C50.7675 7.90996 49.9188 8.32119 49.3337 8.97336L36.0138 3.49007C36.0228 3.39244 36.0281 3.29369 36.0281 3.1937C36.0281 1.43268 34.5955 0 32.8344 0C31.0732 0 29.6407 1.43268 29.6407 3.1937C29.6407 3.29369 29.6459 3.39244 29.6549 3.49007L16.5311 8.89283C15.9495 8.28773 15.1332 7.91008 14.2297 7.91008C12.4687 7.91008 11.036 9.34276 11.036 11.1038C11.036 12.4375 11.8581 13.5823 13.022 14.0595V18.0518C8.008 21.9299 4.10183 26.3352 1.91823 29.0371C0.55983 30.7178 0.55983 33.1574 1.91811 34.838C2.87639 36.024 3.90608 37.2155 4.97834 38.3797C5.3289 38.7598 5.9209 38.7843 6.30142 38.434C6.68181 38.0836 6.70603 37.4913 6.35585 37.1109C5.3108 35.9765 4.30782 34.8157 3.37476 33.661C2.56766 32.6624 2.56766 31.2129 3.37476 30.2143C5.36186 27.7555 9.4865 23.0371 14.7845 19.0628C15.1722 18.7719 15.5593 18.4902 15.9457 18.2171C12.8958 21.9642 11.0644 26.7408 11.0644 31.9376C11.0644 37.1297 12.8924 41.9023 15.9374 45.6479C13.356 43.8256 11.0461 41.8163 9.10336 39.9319C8.73195 39.5719 8.13921 39.5809 7.77941 39.9522C7.41937 40.3234 7.42836 40.9162 7.79964 41.2761C9.33232 42.7626 11.087 44.3236 13.0223 45.8187V49.9405C11.8584 50.4177 11.0363 51.5625 11.0363 52.8962C11.0363 54.6571 12.469 56.0899 14.23 56.0899C15.1335 56.0899 15.9498 55.7121 16.5313 55.1072L29.6553 60.5101C29.6463 60.6077 29.641 60.7064 29.641 60.8064C29.641 62.5673 31.0737 64.0001 32.8347 64.0001C34.5957 64.0001 36.0284 62.5674 36.0284 60.8064C36.0284 60.7064 36.0232 60.6077 36.0142 60.5101L49.334 55.0265C49.9192 55.6787 50.7677 56.0899 51.7109 56.0899C53.4719 56.0899 54.9046 54.6572 54.9046 52.8962C54.9046 51.4609 53.9528 50.244 52.6472 49.8428V45.8233C57.6612 41.9452 61.5674 37.54 63.751 34.838C65.109 33.1574 65.109 30.7178 63.7506 29.0371ZM51.7104 9.78271C52.4388 9.78271 53.0315 10.3753 53.0315 11.1038C53.0315 11.8322 52.4388 12.4249 51.7104 12.4249C50.9821 12.4249 50.3894 11.8322 50.3894 11.1038C50.3894 10.3753 50.9821 9.78271 51.7104 9.78271ZM32.8344 1.87262C33.5628 1.87262 34.1554 2.46525 34.1554 3.1937C34.1554 3.92215 33.5628 4.51477 32.8344 4.51477C32.1059 4.51477 31.5133 3.92215 31.5133 3.1937C31.5133 2.46525 32.1059 1.87262 32.8344 1.87262ZM14.2297 9.78271C14.9581 9.78271 15.5507 10.3753 15.5507 11.1038C15.5507 11.8322 14.9581 12.4249 14.2297 12.4249C13.5013 12.4249 12.9087 11.8322 12.9087 11.1038C12.9087 10.3753 13.5013 9.78271 14.2297 9.78271ZM14.8946 14.2272C16.3374 13.9203 17.4233 12.6366 17.4233 11.1037C17.4233 10.9215 17.4072 10.7432 17.3777 10.5693L30.3687 5.22112C30.955 5.93272 31.8426 6.38714 32.8344 6.38714C33.8261 6.38714 34.7137 5.93272 35.3 5.22112L48.5465 10.6744C48.5276 10.8149 48.5168 10.958 48.5168 11.1035C48.5168 12.5388 49.4686 13.7557 50.7741 14.1569V16.6671C45.5974 13.0186 39.4246 10.1391 32.8344 10.1391C26.2441 10.1391 20.0713 13.0186 14.8946 16.6671V14.2272ZM14.2297 54.2174C13.5013 54.2174 12.9087 53.6248 12.9087 52.8963C12.9087 52.1679 13.5013 51.5753 14.2297 51.5753C14.9581 51.5753 15.5507 52.1679 15.5507 52.8963C15.5507 53.6248 14.9581 54.2174 14.2297 54.2174ZM32.8344 62.1274C32.1059 62.1274 31.5133 61.5348 31.5133 60.8063C31.5133 60.0779 32.1059 59.4852 32.8344 59.4852C33.5628 59.4852 34.1554 60.0779 34.1554 60.8063C34.1554 61.5348 33.5628 62.1274 32.8344 62.1274ZM51.7104 54.2174C50.9821 54.2174 50.3894 53.6248 50.3894 52.8963C50.3894 52.1679 50.9821 51.5753 51.7104 51.5753C52.4388 51.5753 53.0315 52.1679 53.0315 52.8963C53.0315 53.6248 52.4388 54.2174 51.7104 54.2174ZM50.7741 49.843C49.4686 50.2441 48.5168 51.461 48.5168 52.8963C48.5168 53.0419 48.5276 53.185 48.5465 53.3254L35.3 58.7788C34.7137 58.0672 33.8262 57.6127 32.8344 57.6127C31.8425 57.6127 30.955 58.0673 30.3687 58.7788L17.3777 53.4305C17.4072 53.2566 17.4233 53.0784 17.4233 52.8962C17.4233 51.3633 16.3374 50.0795 14.8946 49.7727V47.2016C20.0276 50.8159 26.2214 53.7358 32.8344 53.7358C39.4246 53.7358 45.5974 50.8563 50.7741 47.2078V49.843ZM62.2942 33.661C60.3071 36.1198 56.1825 40.8382 50.8844 44.8125C50.5097 45.0936 50.1356 45.3659 49.7621 45.6303C51.109 43.9669 52.2091 42.1069 53.0226 40.0961C53.2165 39.6167 52.985 39.0709 52.5056 38.877C52.0261 38.6829 51.4804 38.9145 51.2864 39.3939C49.817 43.0264 47.327 46.1236 44.0851 48.3507C40.7668 50.6303 36.8764 51.8353 32.8342 51.8353C21.8627 51.8353 12.9366 42.9093 12.9366 31.9377C12.9366 20.9661 21.8628 12.04 32.8344 12.04C43.8059 12.04 52.732 20.966 52.732 31.9376C52.732 33.2082 52.6099 34.4848 52.3692 35.7321C52.2712 36.2399 52.6034 36.7309 53.111 36.829C53.6201 36.927 54.11 36.5948 54.2078 36.0871C54.471 34.7232 54.6046 33.3272 54.6046 31.9377C54.6046 26.7409 52.7733 21.9644 49.7233 18.2172C50.1097 18.4903 50.4967 18.772 50.8844 19.0629C56.1825 23.0373 60.3071 27.7555 62.2942 30.2144C63.1013 31.2129 63.1013 32.6624 62.2942 33.661Z" fill="url(#paint0_linear_23_1215)"/>
<path d="M32.8342 15.332C29.0235 15.332 25.3002 16.6561 22.3504 19.0603C21.9495 19.387 21.8895 19.9768 22.2162 20.3776C22.5426 20.7782 23.1325 20.8388 23.5335 20.5118C26.1502 18.3792 29.4532 17.2047 32.8342 17.2047C40.958 17.2047 47.5674 23.8139 47.5674 31.9378C47.5674 40.0618 40.958 46.6709 32.8342 46.6709C24.7104 46.6709 18.101 40.0616 18.101 31.9377C18.101 28.7877 19.0816 25.7826 20.9372 23.2472C21.2425 22.8299 21.1518 22.244 20.7345 21.9388C20.3171 21.6333 19.7313 21.724 19.426 22.1414C17.3341 24.9998 16.2285 28.3873 16.2285 31.9377C16.2285 41.0942 23.6778 48.5435 32.8343 48.5435C41.9908 48.5435 49.44 41.0942 49.44 31.9377C49.44 22.7812 41.9907 15.332 32.8342 15.332Z" fill="url(#paint1_linear_23_1215)"/>
<path d="M22.3188 37.2508C22.3188 38.81 23.5874 40.0786 25.1466 40.0786C25.9231 40.0786 26.6275 39.7637 27.139 39.2552L30.0157 40.6506C30.0103 40.7214 30.0067 40.7925 30.0067 40.8646C30.0067 42.4238 31.2752 43.6923 32.8344 43.6923C34.3935 43.6923 35.662 42.4238 35.662 40.8646C35.662 40.7925 35.6584 40.7212 35.653 40.6506L38.5298 39.2552C39.0414 39.7637 39.7456 40.0786 40.5221 40.0786C42.0814 40.0786 43.3499 38.81 43.3499 37.2508C43.3499 36.0196 42.5588 34.9703 41.4584 34.583V29.5419C42.5588 29.1545 43.3499 28.1053 43.3499 26.8742C43.3499 25.3149 42.0814 24.0464 40.5221 24.0464C39.7456 24.0464 39.0412 24.3613 38.5298 24.8697L35.653 23.4744C35.6584 23.4036 35.662 23.3324 35.662 23.2604C35.662 21.7011 34.3935 20.4326 32.8344 20.4326C31.2752 20.4326 30.0067 21.7011 30.0067 23.2604C30.0067 23.3324 30.0103 23.4037 30.0157 23.4744L27.139 24.8697C26.6274 24.3613 25.9231 24.0464 25.1466 24.0464C23.5874 24.0464 22.3188 25.3149 22.3188 26.8742C22.3188 28.1054 23.11 29.1547 24.2103 29.5419V34.583C23.11 34.9704 22.3188 36.0197 22.3188 37.2508ZM25.1466 38.2059C24.6199 38.2059 24.1915 37.7775 24.1915 37.2508C24.1915 36.7241 24.6201 36.2956 25.1466 36.2956C25.6732 36.2956 26.1017 36.7241 26.1017 37.2508C26.1017 37.3955 26.0683 37.5323 26.0105 37.6553C26.0089 37.6585 26.0069 37.6614 26.0053 37.6647C26.0035 37.6682 26.0024 37.672 26.0008 37.6755C25.8442 37.9893 25.5207 38.2059 25.1466 38.2059ZM32.8345 41.8197C32.3078 41.8197 31.8795 41.3913 31.8795 40.8646C31.8795 40.3378 32.3079 39.9094 32.8345 39.9094C33.3611 39.9094 33.7895 40.3378 33.7895 40.8646C33.7895 41.3913 33.3612 41.8197 32.8345 41.8197ZM40.5224 38.2059C40.1483 38.2059 39.8249 37.9893 39.6682 37.6755C39.6666 37.672 39.6653 37.6682 39.6637 37.6647C39.6621 37.6615 39.6601 37.6585 39.6585 37.6553C39.6007 37.5322 39.5673 37.3955 39.5673 37.2508C39.5673 36.7241 39.9958 36.2956 40.5224 36.2956C41.0489 36.2956 41.4775 36.7241 41.4775 37.2508C41.4775 37.7775 41.0491 38.2059 40.5224 38.2059ZM40.5224 25.919C41.0491 25.919 41.4775 26.3475 41.4775 26.8742C41.4775 27.4009 41.0489 27.8294 40.5224 27.8294C39.9958 27.8294 39.5673 27.4009 39.5673 26.8742C39.5673 26.7284 39.6012 26.5905 39.6598 26.4668C39.661 26.4646 39.6625 26.4626 39.6636 26.4602C39.6653 26.4567 39.6664 26.453 39.6681 26.4495C39.8249 26.1356 40.1483 25.919 40.5224 25.919ZM32.8345 22.3052C33.3612 22.3052 33.7895 22.7337 33.7895 23.2604C33.7895 23.7871 33.3611 24.2156 32.8345 24.2156C32.3079 24.2156 31.8795 23.7871 31.8795 23.2604C31.8795 22.7337 32.3079 22.3052 32.8345 22.3052ZM32.8345 26.0882C33.6483 26.0882 34.3825 25.7421 34.899 25.19L37.7132 26.555C37.7013 26.6598 37.6947 26.7663 37.6947 26.8743C37.6947 28.1054 38.4858 29.1547 39.5861 29.5421V34.5832C38.4858 34.9705 37.6947 36.0198 37.6947 37.2509C37.6947 37.3589 37.7013 37.4654 37.7132 37.5702L34.899 38.9353C34.3827 38.3831 33.6485 38.037 32.8345 38.037C32.0205 38.037 31.2865 38.3831 30.77 38.9353L27.9558 37.5702C27.9677 37.4654 27.9743 37.3589 27.9743 37.2509C27.9743 36.0198 27.1832 34.9705 26.0829 34.5832V29.5421C27.1832 29.1547 27.9743 28.1054 27.9743 26.8743C27.9743 26.7663 27.9677 26.6598 27.9558 26.555L30.77 25.19C31.2865 25.742 32.0207 26.0882 32.8345 26.0882ZM25.1466 25.919C25.5207 25.919 25.8441 26.1356 26.0008 26.4495C26.0024 26.453 26.0037 26.4567 26.0053 26.4602C26.0064 26.4626 26.0079 26.4645 26.0092 26.4668C26.0678 26.5905 26.1017 26.7284 26.1017 26.8742C26.1017 27.4009 25.6732 27.8294 25.1466 27.8294C24.6201 27.8294 24.1915 27.4009 24.1915 26.8742C24.1915 26.3475 24.6199 25.919 25.1466 25.919Z" fill="url(#paint2_linear_23_1215)"/>
</g>
<defs>
<linearGradient id="paint0_linear_23_1215" x1="32.8344" y1="0" x2="32.8344" y2="64.0001" gradientUnits="userSpaceOnUse">
<stop stop-color="#90F9F1"/>
<stop offset="1" stop-color="#018CFD"/>
</linearGradient>
<linearGradient id="paint1_linear_23_1215" x1="32.8342" y1="15.332" x2="32.8342" y2="48.5435" gradientUnits="userSpaceOnUse">
<stop stop-color="#90F9F1"/>
<stop offset="1" stop-color="#018CFD"/>
</linearGradient>
<linearGradient id="paint2_linear_23_1215" x1="32.8344" y1="20.4326" x2="32.8344" y2="43.6923" gradientUnits="userSpaceOnUse">
<stop stop-color="#90F9F1"/>
<stop offset="1" stop-color="#018CFD"/>
</linearGradient>
<clipPath id="clip0_23_1215">
<rect width="64" height="64" fill="white" transform="translate(0.5)"/>
</clipPath>
</defs>
</svg>
