<svg width="65" height="64" viewBox="0 0 65 64" fill="none" xmlns="http://www.w3.org/2000/svg">
<g clip-path="url(#clip0_23_1253)">
<path d="M19.4175 42.5455H22.9735C23.4913 42.5455 23.911 42.1259 23.911 41.608C23.911 41.0901 23.4913 40.6705 22.9735 40.6705H19.4175C18.6728 40.6705 18.0669 40.0638 18.0669 39.3181V14.992C18.0669 14.2462 18.6728 13.6396 19.4175 13.6396H55.3881C55.9059 13.6396 56.3256 13.22 56.3256 12.7021C56.3256 12.1842 55.9059 11.7646 55.3881 11.7646H41.4771V8.13888L43.7455 5.43875C44.0524 5.55375 44.3844 5.61662 44.731 5.61662C46.282 5.61662 47.5439 4.35687 47.5439 2.80825C47.5439 1.25962 46.282 0 44.731 0C43.18 0 41.9181 1.25975 41.9181 2.80837C41.9181 3.32862 42.0605 3.81625 42.3085 4.2345L39.8219 7.19438C39.68 7.36338 39.6023 7.57688 39.6023 7.79738V11.7645H33.4374V5.45638C34.5289 5.07 35.3128 4.029 35.3128 2.80837C35.3128 1.25975 34.0509 0 32.4999 0C30.9489 0 29.687 1.25975 29.687 2.80837C29.687 4.02887 30.4709 5.07 31.5624 5.45638V11.7646H25.3976V7.79738C25.3976 7.57675 25.3198 7.36325 25.178 7.19438L22.6914 4.2345C22.9394 3.81625 23.0818 3.32862 23.0818 2.80837C23.0816 1.25975 21.8198 0 20.2688 0C18.7178 0 17.4559 1.25975 17.4559 2.80837C17.4559 4.357 18.7178 5.61675 20.2688 5.61675C20.6153 5.61675 20.9474 5.55375 21.2543 5.43888L23.5226 8.139V11.7646H19.4175C17.6389 11.7646 16.1919 13.2125 16.1919 14.992V39.3181C16.1919 41.0976 17.6389 42.5455 19.4175 42.5455ZM44.731 1.875C45.2481 1.875 45.6689 2.29375 45.6689 2.80837C45.6689 3.323 45.2481 3.74175 44.731 3.74175C44.2139 3.74175 43.7931 3.323 43.7931 2.80837C43.7931 2.29375 44.2139 1.875 44.731 1.875ZM32.4999 1.875C33.017 1.875 33.4378 2.29375 33.4378 2.80837C33.4378 3.323 33.017 3.74175 32.4999 3.74175C31.9828 3.74175 31.562 3.323 31.562 2.80837C31.562 2.29375 31.9828 1.875 32.4999 1.875ZM19.3309 2.80837C19.3309 2.29375 19.7516 1.875 20.2688 1.875C20.7859 1.875 21.2066 2.29375 21.2066 2.80837C21.2066 3.323 20.7859 3.74175 20.2688 3.74175C19.7516 3.74175 19.3309 3.323 19.3309 2.80837Z" fill="url(#paint0_linear_23_1253)"/>
<path d="M61.2741 11.7644H59.7563C59.2386 11.7644 58.8188 12.184 58.8188 12.7019C58.8188 13.2198 59.2386 13.6394 59.7563 13.6394H61.2741C62.0188 13.6394 62.6248 14.2462 62.6248 14.9918V39.3179C62.6248 40.0637 62.0188 40.6703 61.2741 40.6703H57.8918C57.6066 40.6703 57.3368 40.8002 57.1589 41.023L52.9417 46.3092L48.7244 41.023C48.5466 40.8002 48.2768 40.6703 47.9916 40.6703H27.3149C26.7972 40.6703 26.3774 41.0899 26.3774 41.6078C26.3774 42.1257 26.7972 42.5453 27.3149 42.5453H47.5403L52.2089 48.3972C52.3868 48.62 52.6566 48.7499 52.9418 48.7499C53.2271 48.7499 53.4968 48.62 53.6747 48.3972L58.3433 42.5453H61.2742C63.0528 42.5453 64.4999 41.0975 64.4999 39.3179V14.9919C64.4998 13.2122 63.0528 11.7644 61.2741 11.7644Z" fill="url(#paint1_linear_23_1253)"/>
<path d="M44.7311 58.3832C44.3845 58.3832 44.0524 58.4462 43.7456 58.5611L41.4772 55.8611V52.2355H43.74C45.4484 52.2355 46.8382 50.8448 46.8382 49.1356V45.3608C46.8382 44.843 46.4185 44.4233 45.9007 44.4233C45.383 44.4233 44.9632 44.843 44.9632 45.3608V49.1356C44.9632 49.811 44.4145 50.3605 43.74 50.3605H15.3062C15.021 50.3605 14.7514 50.4903 14.5734 50.7132L10.8971 55.3211L7.22087 50.7132C7.043 50.4903 6.77325 50.3605 6.488 50.3605H3.59825C2.92375 50.3605 2.375 49.811 2.375 49.1356V25.5593C2.375 24.884 2.92375 24.3345 3.59825 24.3345H13.3795C13.8973 24.3345 14.317 23.9148 14.317 23.397C14.317 22.8791 13.8973 22.4595 13.3795 22.4595H3.59825C1.88987 22.4595 0.5 23.8501 0.5 25.5593V49.1357C0.5 50.845 1.88987 52.2356 3.59825 52.2356H6.03675L10.1644 57.4093C10.3422 57.6322 10.612 57.7621 10.8973 57.7621C11.1825 57.7621 11.4521 57.6322 11.6301 57.4093L15.7577 52.2356H23.5229V55.8612L21.2545 58.5612C20.9476 58.4462 20.6155 58.3833 20.269 58.3833C18.718 58.3833 17.4561 59.6432 17.4561 61.1918C17.4561 62.7405 18.7179 64.0001 20.2689 64.0001C21.8199 64.0001 23.0818 62.7403 23.0818 61.1917C23.0818 60.6715 22.9394 60.1838 22.6914 59.7656L25.178 56.8057C25.3199 56.6367 25.3976 56.4232 25.3976 56.2027V52.2356H31.5625V58.5437C30.471 58.9301 29.6871 59.9712 29.6871 61.1918C29.6871 62.7403 30.949 64.0001 32.5 64.0001C34.051 64.0001 35.3129 62.7403 35.3129 61.1917C35.3129 59.9712 34.529 58.93 33.4375 58.5436V52.2355H39.6022V56.2026C39.6022 56.4232 39.6801 56.6367 39.8219 56.8056L42.3085 59.7655C42.0606 60.1837 41.9181 60.6713 41.9181 61.1916C41.9181 62.7402 43.18 64 44.731 64C46.282 64 47.5439 62.7402 47.5439 61.1916C47.5439 59.643 46.2821 58.3832 44.7311 58.3832ZM20.2689 62.1251C19.7518 62.1251 19.331 61.7063 19.331 61.1917C19.331 60.677 19.7518 60.2582 20.2689 60.2582C20.786 60.2582 21.2068 60.677 21.2068 61.1917C21.2068 61.7063 20.786 62.1251 20.2689 62.1251ZM32.5 62.1251C31.9829 62.1251 31.5621 61.7063 31.5621 61.1917C31.5621 60.677 31.9829 60.2582 32.5 60.2582C33.0171 60.2582 33.4379 60.677 33.4379 61.1917C33.4379 61.7063 33.0171 62.1251 32.5 62.1251ZM44.7311 62.1251C44.214 62.1251 43.7933 61.7063 43.7933 61.1917C43.7933 60.677 44.214 60.2582 44.7311 60.2582C45.2482 60.2582 45.669 60.677 45.669 61.1917C45.669 61.7063 45.2482 62.1251 44.7311 62.1251Z" fill="url(#paint2_linear_23_1253)"/>
<path d="M49.5527 18.6982C49.5527 19.2161 49.9725 19.6357 50.4902 19.6357H57.7811C58.2989 19.6357 58.7186 19.2161 58.7186 18.6982C58.7186 18.1804 58.2989 17.7607 57.7811 17.7607H50.4902C49.9725 17.7607 49.5527 18.1804 49.5527 18.6982Z" fill="url(#paint3_linear_23_1253)"/>
<path d="M46.1311 19.6357C46.6489 19.6357 47.0686 19.2161 47.0686 18.6982C47.0686 18.1804 46.6489 17.7607 46.1311 17.7607H31.2397C30.722 17.7607 30.3022 18.1804 30.3022 18.6982C30.3022 19.2161 30.722 19.6357 31.2397 19.6357H46.1311Z" fill="url(#paint4_linear_23_1253)"/>
<path d="M22.9736 19.6357H26.9401C27.4579 19.6357 27.8776 19.2161 27.8776 18.6982C27.8776 18.1804 27.4579 17.7607 26.9401 17.7607H22.9736C22.4559 17.7607 22.0361 18.1804 22.0361 18.6982C22.0361 19.2161 22.4558 19.6357 22.9736 19.6357Z" fill="url(#paint5_linear_23_1253)"/>
<path d="M57.7812 23.3853H40.7622C40.2445 23.3853 39.8247 23.8049 39.8247 24.3228C39.8247 24.8406 40.2445 25.2603 40.7622 25.2603H57.7812C58.299 25.2603 58.7187 24.8406 58.7187 24.3228C58.7187 23.8049 58.299 23.3853 57.7812 23.3853Z" fill="url(#paint6_linear_23_1253)"/>
<path d="M22.9736 25.2603H36.4103C36.928 25.2603 37.3478 24.8406 37.3478 24.3228C37.3478 23.8049 36.928 23.3853 36.4103 23.3853H22.9736C22.4559 23.3853 22.0361 23.8049 22.0361 24.3228C22.0361 24.8406 22.4558 25.2603 22.9736 25.2603Z" fill="url(#paint7_linear_23_1253)"/>
<path d="M40.7622 36.5095H57.7812C58.299 36.5095 58.7187 36.0899 58.7187 35.572C58.7187 35.0541 58.299 34.6345 57.7812 34.6345H40.7622C40.2445 34.6345 39.8247 35.0541 39.8247 35.572C39.8247 36.0899 40.2445 36.5095 40.7622 36.5095Z" fill="url(#paint8_linear_23_1253)"/>
<path d="M22.9736 34.6345C22.4559 34.6345 22.0361 35.0541 22.0361 35.572C22.0361 36.0899 22.4559 36.5095 22.9736 36.5095H36.4103C36.928 36.5095 37.3478 36.0899 37.3478 35.572C37.3478 35.0541 36.928 34.6345 36.4103 34.6345H22.9736Z" fill="url(#paint9_linear_23_1253)"/>
<path d="M53.2231 30.885C53.7408 30.885 54.1606 30.4654 54.1606 29.9475C54.1606 29.4296 53.7408 29.01 53.2231 29.01H49.6021C49.0843 29.01 48.6646 29.4296 48.6646 29.9475C48.6646 30.4654 49.0843 30.885 49.6021 30.885H53.2231Z" fill="url(#paint10_linear_23_1253)"/>
<path d="M46.2111 29.9475C46.2111 29.4296 45.7914 29.01 45.2736 29.01H22.9736C22.4559 29.01 22.0361 29.4296 22.0361 29.9475C22.0361 30.4654 22.4559 30.885 22.9736 30.885H45.2736C45.7915 30.885 46.2111 30.4654 46.2111 29.9475Z" fill="url(#paint11_linear_23_1253)"/>
<path d="M13.4103 28.01H6.97363C6.45588 28.01 6.03613 28.4296 6.03613 28.9475C6.03613 29.4654 6.45588 29.885 6.97363 29.885H13.4103C13.928 29.885 14.3478 29.4654 14.3478 28.9475C14.3478 28.4296 13.928 28.01 13.4103 28.01Z" fill="url(#paint12_linear_23_1253)"/>
<path d="M6.97363 35.5098H13.4103C13.928 35.5098 14.3478 35.0901 14.3478 34.5723C14.3478 34.0544 13.928 33.6348 13.4103 33.6348H6.97363C6.45588 33.6348 6.03613 34.0544 6.03613 34.5723C6.03613 35.0901 6.45576 35.5098 6.97363 35.5098Z" fill="url(#paint13_linear_23_1253)"/>
<path d="M6.97363 46.759H40.7833C41.301 46.759 41.7208 46.3394 41.7208 45.8215C41.7208 45.3037 41.301 44.884 40.7833 44.884H6.97363C6.45588 44.884 6.03613 45.3037 6.03613 45.8215C6.03613 46.3394 6.45576 46.759 6.97363 46.759Z" fill="url(#paint14_linear_23_1253)"/>
<path d="M6.97363 41.1343H13.4103C13.928 41.1343 14.3478 40.7147 14.3478 40.1968C14.3478 39.6789 13.928 39.2593 13.4103 39.2593H6.97363C6.45588 39.2593 6.03613 39.6789 6.03613 40.1968C6.03613 40.7147 6.45576 41.1343 6.97363 41.1343Z" fill="url(#paint15_linear_23_1253)"/>
</g>
<defs>
<linearGradient id="paint0_linear_23_1253" x1="36.2588" y1="0" x2="36.2588" y2="42.5455" gradientUnits="userSpaceOnUse">
<stop stop-color="#73E3F3"/>
<stop offset="1" stop-color="#1B9FFB"/>
</linearGradient>
<linearGradient id="paint1_linear_23_1253" x1="45.4387" y1="11.7644" x2="45.4387" y2="48.7499" gradientUnits="userSpaceOnUse">
<stop stop-color="#73E3F3"/>
<stop offset="1" stop-color="#1B9FFB"/>
</linearGradient>
<linearGradient id="paint2_linear_23_1253" x1="24.0219" y1="22.4595" x2="24.0219" y2="64.0001" gradientUnits="userSpaceOnUse">
<stop stop-color="#73E3F3"/>
<stop offset="1" stop-color="#1B9FFB"/>
</linearGradient>
<linearGradient id="paint3_linear_23_1253" x1="54.1357" y1="17.7607" x2="54.1357" y2="19.6357" gradientUnits="userSpaceOnUse">
<stop stop-color="#73E3F3"/>
<stop offset="1" stop-color="#1B9FFB"/>
</linearGradient>
<linearGradient id="paint4_linear_23_1253" x1="38.6854" y1="17.7607" x2="38.6854" y2="19.6357" gradientUnits="userSpaceOnUse">
<stop stop-color="#73E3F3"/>
<stop offset="1" stop-color="#1B9FFB"/>
</linearGradient>
<linearGradient id="paint5_linear_23_1253" x1="24.9569" y1="17.7607" x2="24.9569" y2="19.6357" gradientUnits="userSpaceOnUse">
<stop stop-color="#73E3F3"/>
<stop offset="1" stop-color="#1B9FFB"/>
</linearGradient>
<linearGradient id="paint6_linear_23_1253" x1="49.2717" y1="23.3853" x2="49.2717" y2="25.2603" gradientUnits="userSpaceOnUse">
<stop stop-color="#73E3F3"/>
<stop offset="1" stop-color="#1B9FFB"/>
</linearGradient>
<linearGradient id="paint7_linear_23_1253" x1="29.6919" y1="23.3853" x2="29.6919" y2="25.2603" gradientUnits="userSpaceOnUse">
<stop stop-color="#73E3F3"/>
<stop offset="1" stop-color="#1B9FFB"/>
</linearGradient>
<linearGradient id="paint8_linear_23_1253" x1="49.2717" y1="34.6345" x2="49.2717" y2="36.5095" gradientUnits="userSpaceOnUse">
<stop stop-color="#73E3F3"/>
<stop offset="1" stop-color="#1B9FFB"/>
</linearGradient>
<linearGradient id="paint9_linear_23_1253" x1="29.6919" y1="34.6345" x2="29.6919" y2="36.5095" gradientUnits="userSpaceOnUse">
<stop stop-color="#73E3F3"/>
<stop offset="1" stop-color="#1B9FFB"/>
</linearGradient>
<linearGradient id="paint10_linear_23_1253" x1="51.4126" y1="29.01" x2="51.4126" y2="30.885" gradientUnits="userSpaceOnUse">
<stop stop-color="#73E3F3"/>
<stop offset="1" stop-color="#1B9FFB"/>
</linearGradient>
<linearGradient id="paint11_linear_23_1253" x1="34.1236" y1="29.01" x2="34.1236" y2="30.885" gradientUnits="userSpaceOnUse">
<stop stop-color="#73E3F3"/>
<stop offset="1" stop-color="#1B9FFB"/>
</linearGradient>
<linearGradient id="paint12_linear_23_1253" x1="10.1919" y1="28.01" x2="10.1919" y2="29.885" gradientUnits="userSpaceOnUse">
<stop stop-color="#73E3F3"/>
<stop offset="1" stop-color="#1B9FFB"/>
</linearGradient>
<linearGradient id="paint13_linear_23_1253" x1="10.1919" y1="33.6348" x2="10.1919" y2="35.5098" gradientUnits="userSpaceOnUse">
<stop stop-color="#73E3F3"/>
<stop offset="1" stop-color="#1B9FFB"/>
</linearGradient>
<linearGradient id="paint14_linear_23_1253" x1="23.8784" y1="44.884" x2="23.8784" y2="46.759" gradientUnits="userSpaceOnUse">
<stop stop-color="#73E3F3"/>
<stop offset="1" stop-color="#1B9FFB"/>
</linearGradient>
<linearGradient id="paint15_linear_23_1253" x1="10.1919" y1="39.2593" x2="10.1919" y2="41.1343" gradientUnits="userSpaceOnUse">
<stop stop-color="#73E3F3"/>
<stop offset="1" stop-color="#1B9FFB"/>
</linearGradient>
<clipPath id="clip0_23_1253">
<rect width="64" height="64" fill="white" transform="translate(0.5)"/>
</clipPath>
</defs>
</svg>
