<svg width="59" height="64" viewBox="0 0 59 64" fill="none" xmlns="http://www.w3.org/2000/svg">
<path d="M19.4602 4.80005C19.6327 4.80005 19.8073 4.75256 19.9636 4.6532C22.8111 2.84269 26.107 1.88418 29.4962 1.8798C32.8854 1.88418 36.1813 2.84269 39.0287 4.6532C39.1851 4.75256 39.3597 4.80005 39.5322 4.80005C39.8428 4.80005 40.147 4.64606 40.3261 4.3644C40.6046 3.92649 40.4751 3.34575 40.0372 3.06722C36.9012 1.0734 33.2745 0.0146595 29.5444 0.00125295C29.536 0.00100236 29.5278 0 29.5194 0C29.5116 0 29.5038 0.000375885 29.4961 0.000375885C29.4883 0.000375885 29.4805 0 29.4728 0C29.4642 0 29.4561 0.00100236 29.4477 0.00125295C25.7178 0.0146595 22.0911 1.0734 18.9551 3.06722C18.5172 3.34575 18.3879 3.92649 18.6663 4.3644C18.8455 4.64606 19.1495 4.80005 19.4602 4.80005Z" fill="url(#paint0_linear_4026_661)"/>
<path d="M9.80371 24.8055C9.80371 25.3245 10.2243 25.7452 10.7434 25.7452C11.2625 25.7452 11.6831 25.3245 11.6831 24.8055V19.7159C11.6831 14.911 13.5664 10.4046 16.9862 7.02667C17.3555 6.66193 17.3592 6.06691 16.9944 5.69779C16.6294 5.32842 16.0344 5.32504 15.6655 5.68964C11.8855 9.42343 9.80371 14.4048 9.80371 19.716V24.8055Z" fill="url(#paint1_linear_4026_661)"/>
<path d="M17.487 11.7759C17.6569 11.905 17.8566 11.9673 18.0547 11.9673C18.3385 11.9673 18.6189 11.8394 18.8037 11.5961C21.3731 8.21414 25.2694 6.27207 29.4965 6.26493C33.7236 6.27207 37.6198 8.21402 40.1892 11.5961C40.3741 11.8394 40.6544 11.9673 40.9382 11.9673C41.1363 11.9673 41.336 11.905 41.5059 11.7759C41.9191 11.4619 41.9996 10.8724 41.6857 10.4592C38.7665 6.6165 34.3418 4.40593 29.5384 4.38613C29.5321 4.38601 29.5261 4.38525 29.5199 4.38525C29.5122 4.38525 29.5044 4.38563 29.4966 4.38563C29.4889 4.38563 29.481 4.38525 29.4732 4.38525C29.4669 4.38525 29.4609 4.38601 29.4548 4.38613C24.6512 4.40593 20.2267 6.61638 17.3073 10.4592C16.9932 10.8724 17.0738 11.4619 17.487 11.7759Z" fill="url(#paint2_linear_4026_661)"/>
<path d="M29.5003 39.7571C28.9812 39.7571 28.5605 40.1778 28.5605 40.6968V57.3832C28.5605 57.9022 28.9812 58.3229 29.5003 58.3229C30.0194 58.3229 30.44 57.9022 30.44 57.3832V40.6968C30.44 40.1778 30.0192 39.7571 29.5003 39.7571Z" fill="url(#paint3_linear_4026_661)"/>
<path d="M29.4339 60.8989C28.9148 60.8989 28.4941 61.3197 28.4941 61.8386V63.0603C28.4941 63.5792 28.9148 64 29.4339 64C29.9529 64 30.3736 63.5792 30.3736 63.0603V61.8386C30.3736 61.3197 29.9529 60.8989 29.4339 60.8989Z" fill="url(#paint4_linear_4026_661)"/>
<path d="M10.7434 36.8376C10.2243 36.8376 9.80371 37.2584 9.80371 37.7774V44.8952C9.80371 45.4142 10.2243 45.8349 10.7434 45.8349C11.2625 45.8349 11.6831 45.4142 11.6831 44.8952V37.7774C11.6831 37.2584 11.2624 36.8376 10.7434 36.8376Z" fill="url(#paint5_linear_4026_661)"/>
<path d="M10.7434 48.1003C10.2243 48.1003 9.80371 48.5211 9.80371 49.0401V50.6956C9.80371 51.2145 10.2243 51.6353 10.7434 51.6353C11.2625 51.6353 11.6831 51.2145 11.6831 50.6956V49.0401C11.6831 48.5211 11.2624 48.1003 10.7434 48.1003Z" fill="url(#paint6_linear_4026_661)"/>
<path d="M15.1287 38.9602C14.6096 38.9602 14.189 39.3809 14.189 39.8999V54.2342C14.189 54.7531 14.6096 55.1739 15.1287 55.1739C15.6478 55.1739 16.0684 54.7531 16.0684 54.2342V39.8999C16.0684 39.3809 15.6476 38.9602 15.1287 38.9602Z" fill="url(#paint7_linear_4026_661)"/>
<path d="M15.1287 57.2019C14.6096 57.2019 14.189 57.6226 14.189 58.1416V59.6898C14.189 60.2087 14.6096 60.6295 15.1287 60.6295C15.6478 60.6295 16.0684 60.2087 16.0684 59.6898V58.1416C16.0684 57.6226 15.6476 57.2019 15.1287 57.2019Z" fill="url(#paint8_linear_4026_661)"/>
<path d="M19.5139 36.2646C18.9948 36.2646 18.5742 36.6854 18.5742 37.2044V39.5625C18.5742 40.0815 18.9948 40.5022 19.5139 40.5022C20.033 40.5022 20.4536 40.0815 20.4536 39.5625V37.2044C20.4536 36.6853 20.0329 36.2646 19.5139 36.2646Z" fill="url(#paint9_linear_4026_661)"/>
<path d="M19.5139 43.0471C18.9948 43.0471 18.5742 43.4679 18.5742 43.9868V50.6956C18.5742 51.2146 18.9948 51.6353 19.5139 51.6353C20.033 51.6353 20.4536 51.2146 20.4536 50.6956V43.9868C20.4536 43.4679 20.0329 43.0471 19.5139 43.0471Z" fill="url(#paint10_linear_4026_661)"/>
<path d="M23.8997 37.4438C23.3806 37.4438 22.96 37.8646 22.96 38.3836V47.6867C22.96 48.2057 23.3806 48.6264 23.8997 48.6264C24.4188 48.6264 24.8394 48.2057 24.8394 47.6867V38.3836C24.8394 37.8646 24.4186 37.4438 23.8997 37.4438Z" fill="url(#paint11_linear_4026_661)"/>
<path d="M23.8997 50.7583C23.3806 50.7583 22.96 51.179 22.96 51.698V52.8849C22.96 53.4039 23.3806 53.8246 23.8997 53.8246C24.4188 53.8246 24.8394 53.4039 24.8394 52.8849V51.698C24.8394 51.179 24.4186 50.7583 23.8997 50.7583Z" fill="url(#paint12_linear_4026_661)"/>
<path d="M47.3169 37.7774V44.8952C47.3169 45.4142 47.7375 45.8349 48.2566 45.8349C48.7757 45.8349 49.1963 45.4142 49.1963 44.8952V37.7774C49.1963 37.2584 48.7757 36.8376 48.2566 36.8376C47.7375 36.8376 47.3169 37.2584 47.3169 37.7774Z" fill="url(#paint13_linear_4026_661)"/>
<path d="M49.1963 50.6956V49.0401C49.1963 48.5211 48.7757 48.1003 48.2566 48.1003C47.7375 48.1003 47.3169 48.5211 47.3169 49.0401V50.6956C47.3169 51.2145 47.7375 51.6353 48.2566 51.6353C48.7757 51.6353 49.1963 51.2145 49.1963 50.6956Z" fill="url(#paint14_linear_4026_661)"/>
<path d="M43.8714 38.9602C43.3523 38.9602 42.9316 39.3809 42.9316 39.8999V54.2342C42.9316 54.7531 43.3523 55.1739 43.8714 55.1739C44.3904 55.1739 44.8111 54.7531 44.8111 54.2342V39.8999C44.8111 39.3809 44.3903 38.9602 43.8714 38.9602Z" fill="url(#paint15_linear_4026_661)"/>
<path d="M43.8714 57.2019C43.3523 57.2019 42.9316 57.6226 42.9316 58.1416V59.6898C42.9316 60.2087 43.3523 60.6295 43.8714 60.6295C44.3904 60.6295 44.8111 60.2087 44.8111 59.6898V58.1416C44.8111 57.6226 44.3903 57.2019 43.8714 57.2019Z" fill="url(#paint16_linear_4026_661)"/>
<path d="M39.4861 36.2646C38.967 36.2646 38.5464 36.6854 38.5464 37.2044V39.5625C38.5464 40.0815 38.967 40.5022 39.4861 40.5022C40.0052 40.5022 40.4258 40.0815 40.4258 39.5625V37.2044C40.4258 36.6853 40.0051 36.2646 39.4861 36.2646Z" fill="url(#paint17_linear_4026_661)"/>
<path d="M39.4861 43.0471C38.967 43.0471 38.5464 43.4679 38.5464 43.9868V50.6956C38.5464 51.2146 38.967 51.6353 39.4861 51.6353C40.0052 51.6353 40.4258 51.2146 40.4258 50.6956V43.9868C40.4258 43.4679 40.0051 43.0471 39.4861 43.0471Z" fill="url(#paint18_linear_4026_661)"/>
<path d="M35.1008 37.4438C34.5817 37.4438 34.1611 37.8646 34.1611 38.3836V47.6867C34.1611 48.2057 34.5817 48.6264 35.1008 48.6264C35.6199 48.6264 36.0406 48.2057 36.0406 47.6867V38.3836C36.0406 37.8646 35.6198 37.4438 35.1008 37.4438Z" fill="url(#paint19_linear_4026_661)"/>
<path d="M35.1008 50.7583C34.5817 50.7583 34.1611 51.179 34.1611 51.698V52.8849C34.1611 53.4039 34.5817 53.8246 35.1008 53.8246C35.6199 53.8246 36.0406 53.4039 36.0406 52.8849V51.698C36.0406 51.179 35.6198 50.7583 35.1008 50.7583Z" fill="url(#paint20_linear_4026_661)"/>
<path d="M1.09157 13.264C1.61066 13.264 2.03128 12.8433 2.03128 12.3243V4.6866C2.03128 4.60465 2.09794 4.53787 2.18 4.53787H9.8176C10.3367 4.53787 10.7573 4.11713 10.7573 3.59816C10.7573 3.07919 10.3367 2.65845 9.8176 2.65845H2.18C1.06175 2.65845 0.151855 3.56821 0.151855 4.6866V12.3243C0.151855 12.8433 0.572596 13.264 1.09157 13.264Z" fill="url(#paint21_linear_4026_661)"/>
<path d="M43.8639 36.897C44.383 36.897 44.8037 36.4763 44.8037 35.9573V34.6417H55.7319C56.251 34.6417 56.6716 34.221 56.6716 33.702C56.6716 33.1831 56.251 32.7623 55.7319 32.7623H49.189V19.716C49.189 14.4047 47.1072 9.42338 43.3272 5.6896C42.9579 5.32499 42.3629 5.3285 41.9983 5.69774C41.6336 6.06698 41.6372 6.66189 42.0064 7.02662C45.4262 10.4046 47.3096 14.911 47.3096 19.7159V32.7622H44.8037V19.716C44.8037 17.8243 44.4605 15.9746 43.7834 14.218C43.5968 13.7339 43.053 13.4926 42.5686 13.6792C42.0844 13.8657 41.8431 14.4096 42.0298 14.8939C42.6233 16.4339 42.9242 18.0562 42.9242 19.7159V32.7622H40.4649V19.716C40.4649 18.278 40.1872 16.8764 39.6394 15.5502C39.4413 15.0704 38.8917 14.8423 38.4121 15.0404C37.9325 15.2386 37.7042 15.788 37.9024 16.2676C38.3556 17.3652 38.5855 18.5253 38.5855 19.7159V32.7622H36.0796V19.716C36.0796 16.0988 33.1368 13.156 29.5197 13.156C25.9025 13.156 22.9599 16.0988 22.9599 19.716V32.7623H20.454V19.716C20.454 14.7171 24.5209 10.6501 29.5197 10.6501C31.8821 10.6501 34.1215 11.5599 35.8248 13.2118C36.1974 13.573 36.7923 13.564 37.1535 13.1914C37.5148 12.8187 37.5057 12.2239 37.1332 11.8626C35.0771 9.86881 32.3733 8.77072 29.5197 8.77072C23.4845 8.77072 18.5746 13.6808 18.5746 19.716V32.7623H16.0687V19.716C16.0687 18.0563 16.3695 16.434 16.9631 14.894C17.1498 14.4097 16.9085 13.8658 16.4242 13.6793C15.9397 13.4926 15.3961 13.734 15.2095 14.2182C14.5325 15.9747 14.1892 17.8244 14.1892 19.7161V32.7624H11.6833V28.8104C11.6833 28.2914 11.2627 27.8707 10.7436 27.8707C10.2245 27.8707 9.80391 28.2914 9.80391 28.8104V32.7624H2.76735C2.24825 32.7624 1.82764 33.1832 1.82764 33.7021C1.82764 34.2211 2.24825 34.6419 2.76735 34.6419H14.1891V35.9575C14.1891 36.4764 14.6097 36.8972 15.1288 36.8972C15.6479 36.8972 16.0685 36.4764 16.0685 35.9575V34.6419H28.5604V36.0417C28.5604 36.5606 28.981 36.9814 29.5001 36.9814C30.0192 36.9814 30.4399 36.5606 30.4399 36.0417V34.6419H42.9242V35.9575C42.9242 36.4764 43.345 36.897 43.8639 36.897ZM29.5003 19.0904C28.9812 19.0904 28.5606 19.5111 28.5606 20.0301V32.7623H24.8393V19.716C24.8393 17.1352 26.939 15.0355 29.5197 15.0355C32.1006 15.0355 34.2002 17.1352 34.2002 19.716V32.7623H30.4399V20.0301C30.44 19.5111 30.0192 19.0904 29.5003 19.0904Z" fill="url(#paint22_linear_4026_661)"/>
<path d="M56.8203 2.65845H56.8127H49.1827H49.1751C48.656 2.65845 48.2354 3.07919 48.2354 3.59816C48.2354 4.11713 48.656 4.53787 49.1751 4.53787H49.1827H56.8127C56.8946 4.53787 56.9614 4.60453 56.9614 4.6866V12.3243C56.9614 12.8433 57.382 13.264 57.9011 13.264C57.9024 13.264 57.9036 13.2639 57.9049 13.2639C57.9061 13.2639 57.9074 13.264 57.9086 13.264C58.4277 13.264 58.8483 12.8433 58.8483 12.3243V4.68647C58.8483 3.56821 57.9384 2.65845 56.8203 2.65845Z" fill="url(#paint23_linear_4026_661)"/>
<path d="M9.8176 59.5384H2.18C2.09806 59.5384 2.03128 59.4718 2.03128 59.3897V51.752C2.03128 51.233 1.61066 50.8123 1.09157 50.8123C0.57247 50.8123 0.151855 51.233 0.151855 51.752V59.3897C0.151855 60.508 1.06175 61.4178 2.18 61.4178H9.8176C10.3367 61.4178 10.7573 60.9971 10.7573 60.4781C10.7573 59.9592 10.3366 59.5384 9.8176 59.5384Z" fill="url(#paint24_linear_4026_661)"/>
<path d="M57.9084 50.8123C57.3893 50.8123 56.9687 51.233 56.9687 51.752V59.3897C56.9687 59.4716 56.9021 59.5384 56.82 59.5384H49.1824C48.6633 59.5384 48.2427 59.9592 48.2427 60.4781C48.2427 60.9971 48.6633 61.4178 49.1824 61.4178H56.82C57.9382 61.4178 58.8481 60.5081 58.8481 59.3897V51.752C58.8481 51.233 58.4275 50.8123 57.9084 50.8123Z" fill="url(#paint25_linear_4026_661)"/>
<defs>
<linearGradient id="paint0_linear_4026_661" x1="29.4962" y1="0" x2="29.4962" y2="4.80005" gradientUnits="userSpaceOnUse">
<stop stop-color="#73E3F3"/>
<stop offset="1" stop-color="#1B9FFB"/>
</linearGradient>
<linearGradient id="paint1_linear_4026_661" x1="13.5347" y1="5.41846" x2="13.5347" y2="25.7452" gradientUnits="userSpaceOnUse">
<stop stop-color="#73E3F3"/>
<stop offset="1" stop-color="#1B9FFB"/>
</linearGradient>
<linearGradient id="paint2_linear_4026_661" x1="29.4964" y1="4.38525" x2="29.4964" y2="11.9673" gradientUnits="userSpaceOnUse">
<stop stop-color="#73E3F3"/>
<stop offset="1" stop-color="#1B9FFB"/>
</linearGradient>
<linearGradient id="paint3_linear_4026_661" x1="29.5003" y1="39.7571" x2="29.5003" y2="58.3229" gradientUnits="userSpaceOnUse">
<stop stop-color="#73E3F3"/>
<stop offset="1" stop-color="#1B9FFB"/>
</linearGradient>
<linearGradient id="paint4_linear_4026_661" x1="29.4339" y1="60.8989" x2="29.4339" y2="64" gradientUnits="userSpaceOnUse">
<stop stop-color="#73E3F3"/>
<stop offset="1" stop-color="#1B9FFB"/>
</linearGradient>
<linearGradient id="paint5_linear_4026_661" x1="10.7434" y1="36.8376" x2="10.7434" y2="45.8349" gradientUnits="userSpaceOnUse">
<stop stop-color="#73E3F3"/>
<stop offset="1" stop-color="#1B9FFB"/>
</linearGradient>
<linearGradient id="paint6_linear_4026_661" x1="10.7434" y1="48.1003" x2="10.7434" y2="51.6353" gradientUnits="userSpaceOnUse">
<stop stop-color="#73E3F3"/>
<stop offset="1" stop-color="#1B9FFB"/>
</linearGradient>
<linearGradient id="paint7_linear_4026_661" x1="15.1287" y1="38.9602" x2="15.1287" y2="55.1739" gradientUnits="userSpaceOnUse">
<stop stop-color="#73E3F3"/>
<stop offset="1" stop-color="#1B9FFB"/>
</linearGradient>
<linearGradient id="paint8_linear_4026_661" x1="15.1287" y1="57.2019" x2="15.1287" y2="60.6295" gradientUnits="userSpaceOnUse">
<stop stop-color="#73E3F3"/>
<stop offset="1" stop-color="#1B9FFB"/>
</linearGradient>
<linearGradient id="paint9_linear_4026_661" x1="19.5139" y1="36.2646" x2="19.5139" y2="40.5022" gradientUnits="userSpaceOnUse">
<stop stop-color="#73E3F3"/>
<stop offset="1" stop-color="#1B9FFB"/>
</linearGradient>
<linearGradient id="paint10_linear_4026_661" x1="19.5139" y1="43.0471" x2="19.5139" y2="51.6353" gradientUnits="userSpaceOnUse">
<stop stop-color="#73E3F3"/>
<stop offset="1" stop-color="#1B9FFB"/>
</linearGradient>
<linearGradient id="paint11_linear_4026_661" x1="23.8997" y1="37.4438" x2="23.8997" y2="48.6264" gradientUnits="userSpaceOnUse">
<stop stop-color="#73E3F3"/>
<stop offset="1" stop-color="#1B9FFB"/>
</linearGradient>
<linearGradient id="paint12_linear_4026_661" x1="23.8997" y1="50.7583" x2="23.8997" y2="53.8246" gradientUnits="userSpaceOnUse">
<stop stop-color="#73E3F3"/>
<stop offset="1" stop-color="#1B9FFB"/>
</linearGradient>
<linearGradient id="paint13_linear_4026_661" x1="48.2566" y1="36.8376" x2="48.2566" y2="45.8349" gradientUnits="userSpaceOnUse">
<stop stop-color="#73E3F3"/>
<stop offset="1" stop-color="#1B9FFB"/>
</linearGradient>
<linearGradient id="paint14_linear_4026_661" x1="48.2566" y1="48.1003" x2="48.2566" y2="51.6353" gradientUnits="userSpaceOnUse">
<stop stop-color="#73E3F3"/>
<stop offset="1" stop-color="#1B9FFB"/>
</linearGradient>
<linearGradient id="paint15_linear_4026_661" x1="43.8714" y1="38.9602" x2="43.8714" y2="55.1739" gradientUnits="userSpaceOnUse">
<stop stop-color="#73E3F3"/>
<stop offset="1" stop-color="#1B9FFB"/>
</linearGradient>
<linearGradient id="paint16_linear_4026_661" x1="43.8714" y1="57.2019" x2="43.8714" y2="60.6295" gradientUnits="userSpaceOnUse">
<stop stop-color="#73E3F3"/>
<stop offset="1" stop-color="#1B9FFB"/>
</linearGradient>
<linearGradient id="paint17_linear_4026_661" x1="39.4861" y1="36.2646" x2="39.4861" y2="40.5022" gradientUnits="userSpaceOnUse">
<stop stop-color="#73E3F3"/>
<stop offset="1" stop-color="#1B9FFB"/>
</linearGradient>
<linearGradient id="paint18_linear_4026_661" x1="39.4861" y1="43.0471" x2="39.4861" y2="51.6353" gradientUnits="userSpaceOnUse">
<stop stop-color="#73E3F3"/>
<stop offset="1" stop-color="#1B9FFB"/>
</linearGradient>
<linearGradient id="paint19_linear_4026_661" x1="35.1008" y1="37.4438" x2="35.1008" y2="48.6264" gradientUnits="userSpaceOnUse">
<stop stop-color="#73E3F3"/>
<stop offset="1" stop-color="#1B9FFB"/>
</linearGradient>
<linearGradient id="paint20_linear_4026_661" x1="35.1008" y1="50.7583" x2="35.1008" y2="53.8246" gradientUnits="userSpaceOnUse">
<stop stop-color="#73E3F3"/>
<stop offset="1" stop-color="#1B9FFB"/>
</linearGradient>
<linearGradient id="paint21_linear_4026_661" x1="5.45459" y1="2.65845" x2="5.45459" y2="13.264" gradientUnits="userSpaceOnUse">
<stop stop-color="#73E3F3"/>
<stop offset="1" stop-color="#1B9FFB"/>
</linearGradient>
<linearGradient id="paint22_linear_4026_661" x1="29.2496" y1="5.41846" x2="29.2496" y2="36.9814" gradientUnits="userSpaceOnUse">
<stop stop-color="#73E3F3"/>
<stop offset="1" stop-color="#1B9FFB"/>
</linearGradient>
<linearGradient id="paint23_linear_4026_661" x1="53.5418" y1="2.65845" x2="53.5418" y2="13.264" gradientUnits="userSpaceOnUse">
<stop stop-color="#73E3F3"/>
<stop offset="1" stop-color="#1B9FFB"/>
</linearGradient>
<linearGradient id="paint24_linear_4026_661" x1="5.45459" y1="50.8123" x2="5.45459" y2="61.4178" gradientUnits="userSpaceOnUse">
<stop stop-color="#73E3F3"/>
<stop offset="1" stop-color="#1B9FFB"/>
</linearGradient>
<linearGradient id="paint25_linear_4026_661" x1="53.5454" y1="50.8123" x2="53.5454" y2="61.4178" gradientUnits="userSpaceOnUse">
<stop stop-color="#73E3F3"/>
<stop offset="1" stop-color="#1B9FFB"/>
</linearGradient>
</defs>
</svg>
