<svg width="65" height="64" viewBox="0 0 65 64" fill="none" xmlns="http://www.w3.org/2000/svg">
<g clip-path="url(#clip0_23_1307)">
<path d="M52.1267 44.18C52.455 44.7675 53.0823 45.1655 53.8032 45.1655C54.8636 45.1655 55.7231 44.3059 55.7231 43.2455C55.7231 42.1852 54.8636 41.3256 53.8032 41.3256C53.0822 41.3256 52.4549 41.7236 52.1266 42.3113H48.9237V39.9224C48.9237 39.4062 48.5054 38.988 47.9893 38.988C47.4731 38.988 47.0548 39.4062 47.0548 39.9224V45.9904C47.0548 47.5669 45.7722 48.8496 44.1957 48.8496H42.93C42.9292 48.8496 42.9283 48.8494 42.9276 48.8494C42.9268 48.8494 42.926 48.8496 42.9252 48.8496H36.896C36.8952 48.8496 36.8944 48.8494 36.8936 48.8494C36.8929 48.8494 36.892 48.8496 36.8912 48.8496H33.2682V44.1828H40.6095C41.5901 44.1828 42.388 43.385 42.388 42.4043V21.8478C42.388 20.8671 41.5901 20.0692 40.6095 20.0692H33.2682V15.4026H44.1959C45.7724 15.4026 47.0551 16.6853 47.0551 18.2618V35.9401C47.0551 36.4563 47.4733 36.8746 47.9895 36.8746C48.5057 36.8746 48.9239 36.4563 48.9239 35.9401V33.059H52.869V33.2926C52.869 34.4939 53.8464 35.4712 55.0476 35.4712H57.3837C58.5849 35.4712 59.5622 34.4938 59.5622 33.2926V30.9565C59.5622 29.7552 58.5848 28.778 57.3837 28.778H55.0476C53.8463 28.778 52.869 29.7553 52.869 30.9565V31.1902H48.9239V21.9381H52.1269C52.4552 22.5258 53.0825 22.9236 53.8033 22.9236C54.8637 22.9236 55.7233 22.064 55.7233 21.0037C55.7233 19.9433 54.8637 19.0837 53.8033 19.0837C53.0825 19.0837 52.455 19.4817 52.1269 20.0692H48.9239V18.2618C48.9239 15.6548 46.8029 13.5338 44.1959 13.5338H43.8621V12.1933C43.8621 11.6772 43.4439 11.2589 42.9277 11.2589C42.4115 11.2589 41.9933 11.6772 41.9933 12.1933V13.5338H37.828V12.1933C37.828 11.6772 37.4098 11.2589 36.8936 11.2589C36.3774 11.2589 35.9592 11.6772 35.9592 12.1933V13.5338H33.2681V6.37167C33.2681 5.8555 32.8498 5.43726 32.3337 5.43726C31.8175 5.43726 31.3992 5.8555 31.3992 6.37167V7.93527C28.2339 8.05599 25.2224 8.78646 22.4793 10.0138C22.4057 10.0367 22.3351 10.0687 22.2687 10.1093C16.2694 12.863 11.5817 17.9981 9.4236 24.2975C9.39956 24.3516 9.38074 24.4076 9.36716 24.465C8.56182 26.8734 8.12451 29.4487 8.12451 32.1246C8.12451 34.8005 8.56182 37.3758 9.36716 39.7842C9.38062 39.8416 9.39956 39.8977 9.4236 39.9517C11.5824 46.253 16.2723 51.3893 22.2741 54.1423C22.3364 54.1799 22.4023 54.2098 22.4709 54.2317C25.2163 55.4613 28.2307 56.193 31.3992 56.3138V57.8804C31.3992 58.3966 31.8175 58.8148 32.3337 58.8148C32.8498 58.8148 33.2681 58.3966 33.2681 57.8804V50.7183H35.9592V52.0557C35.9592 52.5719 36.3774 52.9902 36.8936 52.9902C37.4098 52.9902 37.828 52.5719 37.828 52.0557V50.7183H41.9933V52.0557C41.9933 52.5719 42.4115 52.9902 42.9277 52.9902C43.4439 52.9902 43.8621 52.5719 43.8621 52.0557V50.7183H44.1959C46.8029 50.7183 48.9239 48.5973 48.9239 45.9902V44.18H52.1267ZM54.7376 30.9565C54.7376 30.7858 54.8765 30.6469 55.0474 30.6469H57.3834C57.5542 30.6469 57.6931 30.7858 57.6931 30.9565V33.2926C57.6931 33.4634 57.5542 33.6024 57.3834 33.6024H55.0474C54.8765 33.6024 54.7376 33.4634 54.7376 33.2926V30.9565ZM31.3991 19.0079C27.3552 19.0651 23.463 19.4933 19.9258 20.248C20.7562 17.0053 21.9289 14.0765 23.3968 11.652C25.865 10.5703 28.5646 9.92259 31.3991 9.80535V19.0079ZM20.4419 13.2207C19.3799 15.4735 18.5207 18.009 17.8877 20.7297C15.7774 21.2783 13.8202 21.9498 12.0656 22.7343C13.8882 18.816 16.8138 15.5112 20.4419 13.2207ZM9.99322 32.1246C9.99322 29.7511 10.3666 27.4635 11.0555 25.3158C12.8989 24.311 15.0618 23.4589 17.4607 22.7781C16.9099 25.7519 16.6191 28.9057 16.6191 32.1247C16.6191 35.339 16.9092 38.4882 17.4583 41.4583C15.0388 40.7721 12.8671 39.9204 11.0562 38.9354C10.3669 36.787 9.99322 34.4986 9.99322 32.1246ZM12.0635 41.5104C13.8045 42.2847 15.7664 42.9571 17.8852 43.5092C18.5185 46.2337 19.3785 48.7728 20.4418 51.0284C16.8125 48.7372 13.886 45.4306 12.0635 41.5104ZM23.3968 52.5972C21.9276 50.1705 20.7542 47.2387 19.9237 43.9927C21.5128 44.3338 23.1724 44.6102 24.8794 44.8137C24.917 44.8182 24.9544 44.8205 24.9912 44.8205C25.4578 44.8205 25.8611 44.4714 25.9179 43.9967C25.979 43.4843 25.6132 43.0192 25.1008 42.9581C23.139 42.7241 21.2459 42.3926 19.4599 41.9752C18.8248 38.8742 18.488 35.5411 18.488 32.1247C18.488 28.7039 18.8257 25.3666 19.4624 22.2623C23.0872 21.4183 27.1503 20.9385 31.3991 20.8771V25.076C31.3991 25.5921 31.8174 26.0104 32.3335 26.0104C32.8497 26.0104 33.2679 25.5921 33.2679 25.076V21.9382H40.5189V42.314H33.2679V29.0581C33.2679 28.5419 32.8497 28.1237 32.3335 28.1237C31.8174 28.1237 31.3991 28.5419 31.3991 29.0581V43.3723C30.6046 43.3604 29.8081 43.3344 29.0212 43.293C28.5088 43.2639 28.0661 43.6617 28.0391 44.1771C28.0119 44.6925 28.4077 45.1322 28.9232 45.1592C29.7427 45.2023 30.572 45.2295 31.3991 45.2415V54.444C28.5645 54.3266 25.865 53.6789 23.3968 52.5972Z" fill="url(#paint0_linear_23_1307)"/>
<path d="M50.8615 12.7088H54.735C55.7947 12.7088 56.657 11.8465 56.657 10.7867V6.91325C56.657 5.85349 55.7947 4.99121 54.735 4.99121H50.8615C49.8017 4.99121 48.9395 5.85349 48.9395 6.91325V10.7867C48.9395 11.8465 49.8017 12.7088 50.8615 12.7088ZM50.8083 6.91325C50.8083 6.88397 50.8321 6.86005 50.8615 6.86005H54.735C54.7642 6.86005 54.7882 6.88384 54.7882 6.91325V10.7867C54.7882 10.816 54.7644 10.8399 54.735 10.8399H50.8615C50.8322 10.8399 50.8083 10.8161 50.8083 10.7867V6.91325Z" fill="url(#paint1_linear_23_1307)"/>
<path d="M9.93131 12.7088H13.8048C14.8645 12.7088 15.7268 11.8465 15.7268 10.7867V6.91325C15.7268 5.85349 14.8645 4.99121 13.8048 4.99121H9.93131C8.87156 4.99121 8.00928 5.85349 8.00928 6.91325V10.7867C8.00928 11.8465 8.87156 12.7088 9.93131 12.7088ZM9.87811 6.91325C9.87811 6.88397 9.90191 6.86005 9.93131 6.86005H13.8048C13.8341 6.86005 13.858 6.88384 13.858 6.91325V10.7867C13.858 10.816 13.8342 10.8399 13.8048 10.8399H9.93131C9.90203 10.8399 9.87811 10.8161 9.87811 10.7867V6.91325Z" fill="url(#paint2_linear_23_1307)"/>
<path d="M54.735 51.2913H50.8615C49.8017 51.2913 48.9395 52.1535 48.9395 53.2133V57.0868C48.9395 58.1465 49.8017 59.0088 50.8615 59.0088H54.735C55.7947 59.0088 56.657 58.1465 56.657 57.0868V53.2133C56.657 52.1535 55.7947 51.2913 54.735 51.2913ZM54.7882 57.0866C54.7882 57.1159 54.7644 57.1398 54.735 57.1398H50.8615C50.8322 57.1398 50.8083 57.116 50.8083 57.0866V53.2132C50.8083 53.1839 50.8321 53.16 50.8615 53.16H54.735C54.7642 53.16 54.7882 53.1838 54.7882 53.2132V57.0866Z" fill="url(#paint3_linear_23_1307)"/>
<path d="M58.5157 13.8921C58.2218 13.4681 57.6399 13.3621 57.2153 13.6561C56.7912 13.9501 56.6856 14.5323 56.9793 14.9565C60.4587 19.9779 62.2978 25.8714 62.2978 31.9999C62.2978 38.1284 60.4587 44.0219 56.9793 49.0433C56.6856 49.4674 56.7911 50.0496 57.2153 50.3436C57.3777 50.456 57.563 50.5101 57.7467 50.5101C58.0428 50.5101 58.3343 50.3695 58.5157 50.1078C62.2126 44.7723 64.1666 38.5107 64.1666 32C64.1666 25.4894 62.2126 19.2276 58.5157 13.8921Z" fill="url(#paint4_linear_23_1307)"/>
<path d="M46.2808 58.5253C42.0108 60.7754 37.1878 61.9646 32.3336 61.9646C27.4793 61.9646 22.6564 60.7752 18.3863 58.5253C17.9297 58.2845 17.3646 58.4598 17.1241 58.9164C16.8834 59.3729 17.0586 59.938 17.5152 60.1786C22.0529 62.5696 27.177 63.8335 32.3336 63.8335C37.4902 63.8335 42.6144 62.5696 47.1519 60.1786C47.6086 59.938 47.7836 59.3729 47.543 58.9164C47.3026 58.4599 46.7377 58.2847 46.2808 58.5253Z" fill="url(#paint5_linear_23_1307)"/>
<path d="M7.45236 13.6561C7.02801 13.3624 6.44605 13.4678 6.15202 13.892C5.14484 15.3459 4.25391 16.8929 3.50388 18.4899C3.28448 18.9569 3.48544 19.5135 3.95265 19.7329C4.08098 19.7931 4.21603 19.8217 4.34922 19.8217C4.70018 19.8217 5.03657 19.6229 5.19567 19.2842C5.90147 17.7812 6.74008 16.325 7.68833 14.9565C7.98211 14.5322 7.87646 13.9501 7.45236 13.6561Z" fill="url(#paint6_linear_23_1307)"/>
<path d="M2.36884 31.9998C2.36884 28.8885 2.84402 25.822 3.7813 22.8853C3.93828 22.3937 3.66693 21.8679 3.1753 21.711C2.68367 21.554 2.15791 21.8254 2.00105 22.317C1.00508 25.4377 0.5 28.6954 0.5 31.9998C0.5 38.5102 2.45418 44.7718 6.15099 50.1076C6.33251 50.3695 6.6238 50.5099 6.91995 50.5099C7.10347 50.5099 7.28898 50.4558 7.45132 50.3435C7.87542 50.0496 7.98107 49.4675 7.68729 49.0431C4.20789 44.0216 2.36884 38.128 2.36884 31.9998Z" fill="url(#paint7_linear_23_1307)"/>
<path d="M18.3864 5.47462C22.6564 3.22467 27.4794 2.03534 32.3336 2.03534C37.1879 2.03534 42.0108 3.22467 46.2809 5.47462C46.4198 5.54788 46.5688 5.58264 46.7156 5.58264C47.0512 5.58264 47.3758 5.40111 47.5431 5.08353C47.7838 4.62704 47.6086 4.0619 47.152 3.82132C42.6144 1.43046 37.4903 0.166504 32.3336 0.166504C27.177 0.166504 22.0528 1.43046 17.5151 3.82145C17.0585 4.06203 16.8835 4.62716 17.1241 5.08366C17.3646 5.54028 17.9297 5.71545 18.3864 5.47462Z" fill="url(#paint8_linear_23_1307)"/>
<path d="M13.8048 51.2913H9.93131C8.87156 51.2913 8.00928 52.1535 8.00928 53.2133V57.0868C8.00928 58.1465 8.87156 59.0088 9.93131 59.0088H13.8048C14.8645 59.0088 15.7268 58.1465 15.7268 57.0868V53.2133C15.7268 52.1535 14.8645 51.2913 13.8048 51.2913ZM13.858 57.0866C13.858 57.1159 13.8342 57.1398 13.8048 57.1398H9.93131C9.90203 57.1398 9.87811 57.116 9.87811 57.0866V53.2132C9.87811 53.1839 9.90191 53.16 9.93131 53.16H13.8048C13.8341 53.16 13.858 53.1838 13.858 53.2132V57.0866Z" fill="url(#paint9_linear_23_1307)"/>
</g>
<defs>
<linearGradient id="paint0_linear_23_1307" x1="33.8434" y1="5.43726" x2="33.8434" y2="58.8148" gradientUnits="userSpaceOnUse">
<stop stop-color="#90F9F1"/>
<stop offset="1" stop-color="#018CFD"/>
</linearGradient>
<linearGradient id="paint1_linear_23_1307" x1="52.7982" y1="4.99121" x2="52.7982" y2="12.7088" gradientUnits="userSpaceOnUse">
<stop stop-color="#90F9F1"/>
<stop offset="1" stop-color="#018CFD"/>
</linearGradient>
<linearGradient id="paint2_linear_23_1307" x1="11.868" y1="4.99121" x2="11.868" y2="12.7088" gradientUnits="userSpaceOnUse">
<stop stop-color="#90F9F1"/>
<stop offset="1" stop-color="#018CFD"/>
</linearGradient>
<linearGradient id="paint3_linear_23_1307" x1="52.7982" y1="51.2913" x2="52.7982" y2="59.0088" gradientUnits="userSpaceOnUse">
<stop stop-color="#90F9F1"/>
<stop offset="1" stop-color="#018CFD"/>
</linearGradient>
<linearGradient id="paint4_linear_23_1307" x1="60.4898" y1="13.4897" x2="60.4898" y2="50.5101" gradientUnits="userSpaceOnUse">
<stop stop-color="#90F9F1"/>
<stop offset="1" stop-color="#018CFD"/>
</linearGradient>
<linearGradient id="paint5_linear_23_1307" x1="32.3335" y1="58.4172" x2="32.3335" y2="63.8335" gradientUnits="userSpaceOnUse">
<stop stop-color="#90F9F1"/>
<stop offset="1" stop-color="#018CFD"/>
</linearGradient>
<linearGradient id="paint6_linear_23_1307" x1="5.63485" y1="13.4897" x2="5.63485" y2="19.8217" gradientUnits="userSpaceOnUse">
<stop stop-color="#90F9F1"/>
<stop offset="1" stop-color="#018CFD"/>
</linearGradient>
<linearGradient id="paint7_linear_23_1307" x1="4.17681" y1="21.6665" x2="4.17681" y2="50.5099" gradientUnits="userSpaceOnUse">
<stop stop-color="#90F9F1"/>
<stop offset="1" stop-color="#018CFD"/>
</linearGradient>
<linearGradient id="paint8_linear_23_1307" x1="32.3336" y1="0.166504" x2="32.3336" y2="5.5827" gradientUnits="userSpaceOnUse">
<stop stop-color="#90F9F1"/>
<stop offset="1" stop-color="#018CFD"/>
</linearGradient>
<linearGradient id="paint9_linear_23_1307" x1="11.868" y1="51.2913" x2="11.868" y2="59.0088" gradientUnits="userSpaceOnUse">
<stop stop-color="#90F9F1"/>
<stop offset="1" stop-color="#018CFD"/>
</linearGradient>
<clipPath id="clip0_23_1307">
<rect width="64" height="64" fill="white" transform="translate(0.5)"/>
</clipPath>
</defs>
</svg>
