<svg width="61" height="64" viewBox="0 0 61 64" fill="none" xmlns="http://www.w3.org/2000/svg">
<path d="M9.4053 58.3647C8.88781 58.3647 8.46826 58.7842 8.46826 59.3018V62.8845C8.46826 63.4021 8.88781 63.8216 9.4053 63.8216C9.9228 63.8216 10.3423 63.4021 10.3423 62.8845V59.3018C10.3423 58.7843 9.9228 58.3647 9.4053 58.3647Z" fill="url(#paint0_linear_4026_445)"/>
<path d="M49.2882 48.2293L37.405 44.1V40.4676C40.8437 38.4413 43.3755 35.0349 44.2329 31.015H44.6327C46.8026 31.015 48.5679 29.2496 48.5679 27.0798V24.8003C48.5679 22.6305 46.8026 20.8651 44.6327 20.8651H44.5513V14.4683C44.5513 11.0378 43.3282 7.71071 41.1076 5.09974C40.7724 4.70568 40.1809 4.65783 39.7867 4.99304C39.3925 5.32838 39.3447 5.91971 39.68 6.31389C41.6127 8.58627 42.6771 11.4821 42.6771 14.4683V20.4638H38.8834V17.3079H40.0637C40.5812 17.3079 41.0008 16.8884 41.0008 16.3708C41.0008 15.8532 40.5812 15.4338 40.0637 15.4338H38.8834V14.44C38.8834 12.7975 37.5471 11.461 35.9044 11.461H35.6474V10.0904C35.6474 9.57279 35.2278 9.15337 34.7103 9.15337C34.1929 9.15337 33.7733 9.57279 33.7733 10.0904V11.4612H31.0198V10.0904C31.0198 9.57279 30.6002 9.15337 30.0828 9.15337C29.5653 9.15337 29.1457 9.57279 29.1457 10.0904V11.4612H26.3922V10.0904C26.3922 9.57279 25.9726 9.15337 25.4552 9.15337C24.9377 9.15337 24.5181 9.57279 24.5181 10.0904V11.4612H24.2611C22.6184 11.4612 21.2821 12.7976 21.2821 14.4403V15.434H20.1018C19.5843 15.434 19.1647 15.8534 19.1647 16.3711C19.1647 16.8887 19.5843 17.3081 20.1018 17.3081H21.2821V20.4641H17.4884V14.4685C17.4884 7.52392 23.1383 1.87408 30.0828 1.87408C32.4958 1.87408 34.8403 2.55837 36.8627 3.85285C37.2986 4.13197 37.878 4.00478 38.157 3.56887C38.436 3.13308 38.3088 2.55349 37.873 2.27463C35.5484 0.786488 32.8546 0 30.0828 0C22.1049 0 15.6144 6.49043 15.6144 14.4684V20.8652H15.5329C13.363 20.8652 11.5977 22.6306 11.5977 24.8004V27.0799C11.5977 29.2497 13.363 31.0151 15.5329 31.0151H15.9327C16.7902 35.0349 19.3219 38.4415 22.7606 40.4677V44.1435L11.0024 48.2294C9.48664 48.7561 8.46826 50.1882 8.46826 51.7928V55.3083C8.46826 55.8259 8.88781 56.2453 9.4053 56.2453C9.9228 56.2453 10.3423 55.8259 10.3423 55.3083V51.7928C10.3423 50.9853 10.8548 50.2646 11.6176 49.9995L19.3619 47.3083C20.224 50.3312 22.6082 52.7233 25.6478 53.5839V63.0627C25.6478 63.5803 26.0674 63.9998 26.5848 63.9998C27.1023 63.9998 27.5219 63.5803 27.5219 63.0627V52.8439C27.5219 52.3945 27.2029 52.0084 26.7616 51.9237C24.026 51.3981 21.8481 49.3402 21.1354 46.692L22.9124 46.0746C23.4827 48.4275 25.6056 50.1806 28.1313 50.1806H32.0342C34.5742 50.1806 36.7065 48.4076 37.2623 46.0345L39.0406 46.6523C38.3394 49.3201 36.1555 51.395 33.404 51.9236C32.9627 52.0084 32.6437 52.3945 32.6437 52.8437V63.0626C32.6437 63.5802 33.0633 63.9996 33.5808 63.9996C34.0983 63.9996 34.5178 63.5802 34.5178 63.0626V53.5838C37.5728 52.7194 39.9628 50.3112 40.815 47.2689L48.6729 49.9993C49.4356 50.2644 49.9481 50.985 49.9481 51.7925V62.8842C49.9481 63.4018 50.3676 63.8212 50.8851 63.8212C51.4026 63.8212 51.8222 63.4018 51.8222 62.8842V51.7925C51.8223 50.1882 50.8039 48.7561 49.2882 48.2293ZM46.6937 24.8004V27.0799C46.6937 28.2165 45.7692 29.141 44.6326 29.141H44.5056C44.5355 28.7623 44.5511 28.3798 44.5511 27.9936V22.7392H44.6326C45.7692 22.7393 46.6937 23.6639 46.6937 24.8004ZM23.1562 14.4401C23.1562 13.8309 23.6518 13.3352 24.2611 13.3352H35.9043C36.5136 13.3352 37.0092 13.8309 37.0092 14.4401V20.4639H35.1351V16.1463C35.1351 15.6287 34.7156 15.2093 34.1981 15.2093H25.9671C25.4497 15.2093 25.0301 15.6287 25.0301 16.1463V20.4639H23.156V14.4401H23.1562ZM33.2612 20.4639H26.9043V17.0833H33.2612V20.4639ZM15.5329 29.141C14.3963 29.141 13.4718 28.2165 13.4718 27.0799V24.8004C13.4718 23.6639 14.3963 22.7393 15.5329 22.7393H15.6221L15.6142 27.9923V27.9937C15.6142 28.3799 15.6299 28.7625 15.6597 29.1412H15.5329V29.141ZM17.4884 27.9937L17.4968 22.338H22.2191H25.9673H34.1982H37.9464H42.6771V27.9937C42.6771 34.9382 37.0272 40.588 30.0828 40.588C23.1383 40.588 17.4884 34.9382 17.4884 27.9937ZM32.0342 48.3067H28.1313C26.2033 48.3067 24.6347 46.7381 24.6347 44.8101V41.3963C26.3172 42.0827 28.1564 42.4621 30.0828 42.4621C32.0091 42.4621 33.8484 42.0827 35.5308 41.3963V44.8101C35.5309 46.7381 33.9622 48.3067 32.0342 48.3067Z" fill="url(#paint1_linear_4026_445)"/>
<path d="M34.8369 36.1535L35.5156 35.4747C35.8815 35.1088 35.8814 34.5155 35.5156 34.1496C35.1495 33.7838 34.5563 33.7837 34.1904 34.1498L33.5117 34.8284C33.2207 35.1194 32.8336 35.2797 32.422 35.2797H26.1123C25.5948 35.2797 25.1753 35.6991 25.1753 36.2167C25.1753 36.7344 25.5948 37.1538 26.1123 37.1538H32.422C33.3343 37.1538 34.192 36.7986 34.8369 36.1535Z" fill="url(#paint2_linear_4026_445)"/>
<path d="M30.0827 30.8045C31.7515 30.8045 33.1092 29.4468 33.1092 27.7779C33.1092 27.2602 32.6896 26.8408 32.1721 26.8408C31.6546 26.8408 31.2351 27.2602 31.2351 27.7779C31.2351 28.4134 30.7181 28.9304 30.0827 28.9304C29.4472 28.9304 28.9302 28.4134 28.9302 27.7779C28.9302 27.2602 28.5107 26.8408 27.9932 26.8408C27.4757 26.8408 27.0562 27.2602 27.0562 27.7779C27.0562 29.4467 28.4139 30.8045 30.0827 30.8045Z" fill="url(#paint3_linear_4026_445)"/>
<path d="M3.32882 22.3378H9.70943C10.2269 22.3378 10.6465 21.9184 10.6465 21.4007C10.6465 20.8831 10.2269 20.4637 9.70943 20.4637H3.32882C2.81507 20.4637 2.39703 20.0457 2.39703 19.532V7.08553C2.39703 6.57191 2.81495 6.15386 3.32882 6.15386H15.4948C16.0123 6.15386 16.4319 5.73444 16.4319 5.21682C16.4319 4.6992 16.0123 4.27979 15.4948 4.27979H3.32882C1.7817 4.27979 0.522949 5.53842 0.522949 7.08553V19.532C0.523074 21.0791 1.7817 22.3378 3.32882 22.3378Z" fill="url(#paint4_linear_4026_445)"/>
<path d="M57.6712 20.8652H50.6737C50.1562 20.8652 49.7367 21.2847 49.7367 21.8023C49.7367 22.3199 50.1562 22.7393 50.6737 22.7393H57.6712C58.1849 22.7393 58.603 23.1572 58.603 23.671V36.9669C58.603 37.4807 58.185 37.8986 57.6712 37.8986H43.5269C43.0094 37.8986 42.5898 38.318 42.5898 38.8356C42.5898 39.3533 43.0094 39.7727 43.5269 39.7727H57.6712C59.2183 39.7727 60.477 38.514 60.477 36.9669V23.671C60.4769 22.1239 59.2183 20.8652 57.6712 20.8652Z" fill="url(#paint5_linear_4026_445)"/>
<path d="M48.3223 6.44781H57.4594C57.9769 6.44781 58.3965 6.02839 58.3965 5.51077C58.3965 4.99315 57.9769 4.57373 57.4594 4.57373H48.3223C47.8048 4.57373 47.3853 4.99315 47.3853 5.51077C47.3853 6.02839 47.8048 6.44781 48.3223 6.44781Z" fill="url(#paint6_linear_4026_445)"/>
<path d="M48.3223 15.6072H57.4594C57.9769 15.6072 58.3965 15.1878 58.3965 14.6702C58.3965 14.1526 57.9769 13.7332 57.4594 13.7332H48.3223C47.8048 13.7332 47.3853 14.1526 47.3853 14.6702C47.3853 15.1878 47.8048 15.6072 48.3223 15.6072Z" fill="url(#paint7_linear_4026_445)"/>
<path d="M57.4592 9.15332H54.3345C53.817 9.15332 53.3975 9.57274 53.3975 10.0904C53.3975 10.608 53.817 11.0274 54.3345 11.0274H57.4592C57.9767 11.0274 58.3963 10.608 58.3963 10.0904C58.3963 9.57274 57.9767 9.15332 57.4592 9.15332Z" fill="url(#paint8_linear_4026_445)"/>
<path d="M10.6873 31.3772H1.55032C1.03282 31.3772 0.613281 31.7966 0.613281 32.3142C0.613281 32.8319 1.03282 33.2513 1.55032 33.2513H10.6874C11.2049 33.2513 11.6245 32.8319 11.6245 32.3142C11.6245 31.7966 11.2048 31.3772 10.6873 31.3772Z" fill="url(#paint9_linear_4026_445)"/>
<path d="M11.6244 41.4737C11.6244 40.956 11.2048 40.5366 10.6873 40.5366H1.55032C1.03282 40.5366 0.613281 40.956 0.613281 41.4737C0.613281 41.9913 1.03282 42.4107 1.55032 42.4107H10.6874C11.2048 42.4107 11.6244 41.9913 11.6244 41.4737Z" fill="url(#paint10_linear_4026_445)"/>
<path d="M10.6872 35.957H7.56253C7.04503 35.957 6.62549 36.3764 6.62549 36.8941C6.62549 37.4117 7.04503 37.8311 7.56253 37.8311H10.6872C11.2047 37.8311 11.6243 37.4117 11.6243 36.8941C11.6243 36.3764 11.2047 35.957 10.6872 35.957Z" fill="url(#paint11_linear_4026_445)"/>
<defs>
<linearGradient id="paint0_linear_4026_445" x1="9.4053" y1="58.3647" x2="9.4053" y2="63.8216" gradientUnits="userSpaceOnUse">
<stop stop-color="#73E3F3"/>
<stop offset="1" stop-color="#1B9FFB"/>
</linearGradient>
<linearGradient id="paint1_linear_4026_445" x1="30.1452" y1="0" x2="30.1452" y2="63.9998" gradientUnits="userSpaceOnUse">
<stop stop-color="#73E3F3"/>
<stop offset="1" stop-color="#1B9FFB"/>
</linearGradient>
<linearGradient id="paint2_linear_4026_445" x1="30.4826" y1="33.8752" x2="30.4826" y2="37.1538" gradientUnits="userSpaceOnUse">
<stop stop-color="#73E3F3"/>
<stop offset="1" stop-color="#1B9FFB"/>
</linearGradient>
<linearGradient id="paint3_linear_4026_445" x1="30.0827" y1="26.8408" x2="30.0827" y2="30.8045" gradientUnits="userSpaceOnUse">
<stop stop-color="#73E3F3"/>
<stop offset="1" stop-color="#1B9FFB"/>
</linearGradient>
<linearGradient id="paint4_linear_4026_445" x1="8.47741" y1="4.27979" x2="8.47741" y2="22.3378" gradientUnits="userSpaceOnUse">
<stop stop-color="#73E3F3"/>
<stop offset="1" stop-color="#1B9FFB"/>
</linearGradient>
<linearGradient id="paint5_linear_4026_445" x1="51.5334" y1="20.8652" x2="51.5334" y2="39.7727" gradientUnits="userSpaceOnUse">
<stop stop-color="#73E3F3"/>
<stop offset="1" stop-color="#1B9FFB"/>
</linearGradient>
<linearGradient id="paint6_linear_4026_445" x1="52.8909" y1="4.57373" x2="52.8909" y2="6.44781" gradientUnits="userSpaceOnUse">
<stop stop-color="#73E3F3"/>
<stop offset="1" stop-color="#1B9FFB"/>
</linearGradient>
<linearGradient id="paint7_linear_4026_445" x1="52.8909" y1="13.7332" x2="52.8909" y2="15.6072" gradientUnits="userSpaceOnUse">
<stop stop-color="#73E3F3"/>
<stop offset="1" stop-color="#1B9FFB"/>
</linearGradient>
<linearGradient id="paint8_linear_4026_445" x1="55.8969" y1="9.15332" x2="55.8969" y2="11.0274" gradientUnits="userSpaceOnUse">
<stop stop-color="#73E3F3"/>
<stop offset="1" stop-color="#1B9FFB"/>
</linearGradient>
<linearGradient id="paint9_linear_4026_445" x1="6.11888" y1="31.3772" x2="6.11888" y2="33.2513" gradientUnits="userSpaceOnUse">
<stop stop-color="#73E3F3"/>
<stop offset="1" stop-color="#1B9FFB"/>
</linearGradient>
<linearGradient id="paint10_linear_4026_445" x1="6.11882" y1="40.5366" x2="6.11882" y2="42.4107" gradientUnits="userSpaceOnUse">
<stop stop-color="#73E3F3"/>
<stop offset="1" stop-color="#1B9FFB"/>
</linearGradient>
<linearGradient id="paint11_linear_4026_445" x1="9.12488" y1="35.957" x2="9.12488" y2="37.8311" gradientUnits="userSpaceOnUse">
<stop stop-color="#73E3F3"/>
<stop offset="1" stop-color="#1B9FFB"/>
</linearGradient>
</defs>
</svg>
