<svg width="57" height="64" viewBox="0 0 57 64" fill="none" xmlns="http://www.w3.org/2000/svg">
<path d="M31.473 39.6432C31.473 39.1236 31.0519 38.7023 30.5321 38.7023H22.9779L22.9766 25.86L35.8187 25.8588L35.8201 38.7023H34.5419C34.0222 38.7023 33.601 39.1236 33.601 39.6432C33.601 40.1628 34.0222 40.5841 34.5419 40.5841H36.7596C37.0027 40.5841 37.238 40.4884 37.4134 40.3199C37.5979 40.1425 37.7022 39.8975 37.7022 39.6416L37.7005 24.9176C37.7005 24.398 37.2792 23.9767 36.7595 23.9768L22.0355 23.9783C21.786 23.9783 21.5467 24.0775 21.3702 24.2539C21.1937 24.4303 21.0947 24.6697 21.0947 24.9194L21.0964 39.6433C21.0964 40.163 21.5176 40.5841 22.0373 40.5841H30.5322C31.0519 40.5841 31.473 40.1628 31.473 39.6432Z" fill="url(#paint0_linear_4026_179)"/>
<path d="M56.0355 24.1571C56.0355 19.5471 52.5514 15.7376 48.0784 15.2181V14.4682C48.0784 6.49044 41.5881 0 33.6102 0C30.6633 0 27.8276 0.880823 25.4097 2.547C23.2264 4.05159 21.5158 6.09977 20.4299 8.4966H11.2639C8.46934 8.4966 6.19583 10.7702 6.19583 13.5648C6.19583 14.8149 6.65174 15.9601 7.40497 16.8448C3.52012 17.4407 0.535156 20.8057 0.535156 24.8546C0.535156 29.323 4.17048 32.9582 8.6387 32.9582H11.6033C12.1231 32.9582 12.5443 32.5369 12.5443 32.0173C12.5443 31.4976 12.1231 31.0763 11.6033 31.0763H8.63858C5.20787 31.0763 2.41686 28.2852 2.41686 24.8546C2.41686 21.424 5.20787 18.6329 8.63858 18.6329H11.4281C11.9478 18.6329 12.369 18.2116 12.369 17.692C12.369 17.1724 11.9478 16.7511 11.4281 16.7511H11.2637C9.50686 16.7511 8.07754 15.3218 8.07754 13.5649C8.07754 11.808 9.50698 10.3786 11.2637 10.3786H23.8729C24.3927 10.3786 24.8138 9.95728 24.8138 9.43764C24.8138 8.918 24.3927 8.49673 23.8729 8.49673H22.5258C24.704 4.43636 28.9155 1.88183 33.6104 1.88183C40.5504 1.88183 46.1966 7.52808 46.1966 14.4682V15.1557H42.7478C42.228 15.1557 41.8069 15.5769 41.8069 16.0966C41.8069 16.6162 42.228 17.0375 42.7478 17.0375H47.0341C50.9599 17.0375 54.1537 20.2313 54.1537 24.1571C54.1537 28.0828 50.9599 31.2767 47.0341 31.2767H46.9097C46.3899 31.2767 45.9687 31.698 45.9687 32.2176C45.9687 32.7372 46.3899 33.1585 46.9097 33.1585H47.0341C51.9976 33.1586 56.0355 29.1206 56.0355 24.1571Z" fill="url(#paint1_linear_4026_179)"/>
<path d="M29.1504 10.3787C29.6702 10.3787 30.0913 9.95738 30.0913 9.43774C30.0913 8.91811 29.6702 8.49683 29.1504 8.49683H27.8828C27.363 8.49683 26.9419 8.91811 26.9419 9.43774C26.9419 9.95738 27.363 10.3787 27.8828 10.3787H29.1504Z" fill="url(#paint2_linear_4026_179)"/>
<path d="M29.4609 60.9836C28.9412 60.9836 28.52 61.4049 28.52 61.9246V63.0592C28.52 63.5788 28.9412 64.0001 29.4609 64.0001C29.9807 64.0001 30.4019 63.5788 30.4019 63.0592V61.9246C30.4019 61.4049 29.9806 60.9836 29.4609 60.9836Z" fill="url(#paint3_linear_4026_179)"/>
<path d="M41.4826 55.4818C40.8222 55.4818 40.2039 55.6645 39.6747 55.9816L36.6516 52.9586V44.3478H36.7595C39.3545 44.3478 41.4657 42.2367 41.4657 39.6417V39.4084H43.1462C43.6659 39.4084 44.0871 38.9871 44.0871 38.4675C44.0871 37.9478 43.6659 37.5266 43.1462 37.5266H41.4657V33.1588H43.1462C43.6659 33.1588 44.0871 32.7375 44.0871 32.2179C44.0871 31.6983 43.6659 31.277 43.1462 31.277H41.4657V26.9089H43.1462C43.6659 26.9089 44.0871 26.4876 44.0871 25.968C44.0871 25.4483 43.6659 25.0271 43.1462 25.0271H41.4657V24.919C41.4657 22.3241 39.3545 20.2129 36.7595 20.2129H36.5261V18.5325C36.5261 18.0128 36.105 17.5916 35.5852 17.5916C35.0655 17.5916 34.6443 18.0128 34.6443 18.5325V20.2129H30.2766V18.5325C30.2766 18.0128 29.8554 17.5916 29.3356 17.5916C28.8159 17.5916 28.3947 18.0128 28.3947 18.5325V20.2129H24.027V18.5325C24.027 18.0128 23.6058 17.5916 23.0861 17.5916C22.5663 17.5916 22.1452 18.0128 22.1452 18.5325V20.2129H22.0373C19.4422 20.2129 17.3311 22.3241 17.3311 24.919V25.1525H15.6506C15.1308 25.1525 14.7097 25.5738 14.7097 26.0934C14.7097 26.6131 15.1308 27.0343 15.6506 27.0343H17.3311V31.4021H15.6506C15.1308 31.4021 14.7097 31.8234 14.7097 32.343C14.7097 32.8626 15.1308 33.2839 15.6506 33.2839H17.3311V37.6516H15.6506C15.1308 37.6516 14.7097 38.0729 14.7097 38.5926C14.7097 39.1122 15.1308 39.5335 15.6506 39.5335H17.3311V39.6414C17.3311 42.2363 19.4422 44.3475 22.0373 44.3475H22.2706V52.9582L19.2475 55.9812C18.7183 55.6642 18.1 55.4814 17.4396 55.4814C15.4936 55.4814 13.9106 57.0645 13.9106 59.0103C13.9106 60.9561 15.4936 62.5393 17.4396 62.5393C19.3855 62.5393 20.9685 60.9561 20.9685 59.0103C20.9685 58.4071 20.8161 57.8389 20.5482 57.3419L23.877 54.0132C24.0533 53.8368 24.1525 53.5974 24.1525 53.3479V44.3473H28.5202V57.5777C28.5202 58.0974 28.9413 58.5187 29.4611 58.5187C29.9809 58.5187 30.402 58.0974 30.402 57.5777V44.3477H34.7698V53.3483C34.7698 53.5978 34.8689 53.8372 35.0453 54.0135L38.374 57.3423C38.1061 57.8394 37.9537 58.4075 37.9537 59.0107C37.9537 60.9565 39.5367 62.5396 41.4826 62.5396C43.4286 62.5396 45.0116 60.9565 45.0116 59.0107C45.0116 57.0649 43.4286 55.4818 41.4826 55.4818ZM17.4396 60.6577C16.5314 60.6577 15.7925 59.9187 15.7925 59.0106C15.7925 58.1024 16.5314 57.3635 17.4396 57.3635C18.3478 57.3635 19.0867 58.1024 19.0867 59.0106C19.0867 59.9187 18.3478 60.6577 17.4396 60.6577ZM19.2128 39.6415V24.919C19.2128 23.3618 20.4799 22.0948 22.0371 22.0948H36.7596C38.3169 22.0948 39.584 23.3618 39.584 24.919V39.6415C39.584 41.1988 38.3169 42.4657 36.7596 42.4657H22.0371C20.4799 42.4659 19.2128 41.1989 19.2128 39.6415ZM41.4826 60.6577C40.5745 60.6577 39.8355 59.9187 39.8355 59.0106C39.8355 58.1024 40.5745 57.3635 41.4826 57.3635C42.3908 57.3635 43.1297 58.1024 43.1297 59.0106C43.1297 59.9187 42.3908 60.6577 41.4826 60.6577Z" fill="url(#paint4_linear_4026_179)"/>
<path d="M10.3174 45.0059C9.79764 45.0059 9.37648 45.4271 9.37648 45.9468V49.0714L5.50555 52.9423C5.23093 52.8323 4.93197 52.7702 4.61821 52.7702C3.29816 52.7702 2.22803 53.8403 2.22803 55.1604C2.22803 56.4804 3.29816 57.5505 4.61821 57.5505C5.93825 57.5505 7.00838 56.4804 7.00838 55.1604C7.00838 54.8465 6.94628 54.5476 6.83626 54.273L10.9828 50.1264C11.1592 49.9501 11.2583 49.7107 11.2583 49.4612V45.9468C11.2583 45.4271 10.8372 45.0059 10.3174 45.0059Z" fill="url(#paint5_linear_4026_179)"/>
<path d="M10.3174 37.3411C9.79762 37.3411 9.37646 37.7623 9.37646 38.282V41.9369C9.37646 42.4565 9.79762 42.8778 10.3174 42.8778C10.8371 42.8778 11.2583 42.4565 11.2583 41.9369V38.282C11.2583 37.7623 10.8371 37.3411 10.3174 37.3411Z" fill="url(#paint6_linear_4026_179)"/>
<path d="M5.02441 41.6262V35.8315C5.02441 35.3119 4.60326 34.8906 4.0835 34.8906C3.56373 34.8906 3.14258 35.3119 3.14258 35.8315V41.6261C2.58317 41.9511 2.20605 42.5553 2.20605 43.2488C2.20605 44.2856 3.04661 45.1262 4.08337 45.1262C5.12014 45.1262 5.96069 44.2856 5.96069 43.2488C5.96069 42.5555 5.58369 41.9513 5.02441 41.6262Z" fill="url(#paint7_linear_4026_179)"/>
<path d="M54.0531 52.7702C53.7392 52.7702 53.4402 52.8323 53.1657 52.9423L49.2949 49.0715V38.2822C49.2949 37.7626 48.8738 37.3413 48.354 37.3413C47.8342 37.3413 47.4131 37.7626 47.4131 38.2822V49.4613C47.4131 49.7108 47.5122 49.9501 47.6886 50.1266L51.835 54.2732C51.7251 54.5478 51.6629 54.8466 51.6629 55.1605C51.6629 56.4806 52.733 57.5507 54.0531 57.5507C55.3731 57.5507 56.4432 56.4806 56.4432 55.1605C56.4431 53.8403 55.3731 52.7702 54.0531 52.7702Z" fill="url(#paint8_linear_4026_179)"/>
<path d="M54.5878 34.8906C54.068 34.8906 53.6468 35.3119 53.6468 35.8315V41.6262C53.0876 41.9513 52.7104 42.5555 52.7104 43.249C52.7104 44.2857 53.551 45.1263 54.5878 45.1263C55.6245 45.1263 56.4651 44.2857 56.4651 43.249C56.4651 42.5555 56.088 41.9513 55.5286 41.6262V35.8317C55.5287 35.3119 55.1075 34.8906 54.5878 34.8906Z" fill="url(#paint9_linear_4026_179)"/>
<defs>
<linearGradient id="paint0_linear_4026_179" x1="29.3984" y1="23.9768" x2="29.3984" y2="40.5841" gradientUnits="userSpaceOnUse">
<stop stop-color="#73E3F3"/>
<stop offset="1" stop-color="#1B9FFB"/>
</linearGradient>
<linearGradient id="paint1_linear_4026_179" x1="28.2854" y1="0" x2="28.2854" y2="33.1585" gradientUnits="userSpaceOnUse">
<stop stop-color="#73E3F3"/>
<stop offset="1" stop-color="#1B9FFB"/>
</linearGradient>
<linearGradient id="paint2_linear_4026_179" x1="28.5166" y1="8.49683" x2="28.5166" y2="10.3787" gradientUnits="userSpaceOnUse">
<stop stop-color="#73E3F3"/>
<stop offset="1" stop-color="#1B9FFB"/>
</linearGradient>
<linearGradient id="paint3_linear_4026_179" x1="29.4609" y1="60.9836" x2="29.4609" y2="64.0001" gradientUnits="userSpaceOnUse">
<stop stop-color="#73E3F3"/>
<stop offset="1" stop-color="#1B9FFB"/>
</linearGradient>
<linearGradient id="paint4_linear_4026_179" x1="29.4611" y1="17.5916" x2="29.4611" y2="62.5396" gradientUnits="userSpaceOnUse">
<stop stop-color="#73E3F3"/>
<stop offset="1" stop-color="#1B9FFB"/>
</linearGradient>
<linearGradient id="paint5_linear_4026_179" x1="6.74317" y1="45.0059" x2="6.74317" y2="57.5505" gradientUnits="userSpaceOnUse">
<stop stop-color="#73E3F3"/>
<stop offset="1" stop-color="#1B9FFB"/>
</linearGradient>
<linearGradient id="paint6_linear_4026_179" x1="10.3174" y1="37.3411" x2="10.3174" y2="42.8778" gradientUnits="userSpaceOnUse">
<stop stop-color="#73E3F3"/>
<stop offset="1" stop-color="#1B9FFB"/>
</linearGradient>
<linearGradient id="paint7_linear_4026_179" x1="4.08337" y1="34.8906" x2="4.08337" y2="45.1262" gradientUnits="userSpaceOnUse">
<stop stop-color="#73E3F3"/>
<stop offset="1" stop-color="#1B9FFB"/>
</linearGradient>
<linearGradient id="paint8_linear_4026_179" x1="51.9282" y1="37.3413" x2="51.9282" y2="57.5507" gradientUnits="userSpaceOnUse">
<stop stop-color="#73E3F3"/>
<stop offset="1" stop-color="#1B9FFB"/>
</linearGradient>
<linearGradient id="paint9_linear_4026_179" x1="54.5878" y1="34.8906" x2="54.5878" y2="45.1263" gradientUnits="userSpaceOnUse">
<stop stop-color="#73E3F3"/>
<stop offset="1" stop-color="#1B9FFB"/>
</linearGradient>
</defs>
</svg>
